<?xml version="1.0" encoding="utf-8"?>
<!-- Generator: Adobe Illustrator 27.5.0, SVG Export Plug-In . SVG Version: 6.00 Build 0)  -->
<svg version="1.1" xmlns="http://www.w3.org/2000/svg" xmlns:xlink="http://www.w3.org/1999/xlink" x="0px" y="0px"
	 viewBox="0 0 500 500" style="enable-background:new 0 0 500 500;" xml:space="preserve">
<g id="Background_Complete">
	<g>
		<g>
			<g>
				<rect x="42.207" y="202.142" style="fill:#F5F5F5;" width="50.935" height="13.475"/>
			</g>
		</g>
		<g>
			<g>
				<g>
					<path style="fill:#E0E0E0;" d="M71.604,229.81c-0.005-0.005-0.01-0.088-0.016-0.245c-0.004-0.18-0.01-0.408-0.017-0.691
						c-0.009-0.634-0.022-1.518-0.038-2.652c-0.021-2.326-0.05-5.67-0.087-9.887l0.158,0.158c-11.63,0.023-30.126,0.06-50.932,0.102
						c0.115-0.116-0.262,0.259,0.256-0.259v0.003v0.007v0.014v0.027v0.054v0.108v0.217l0,0.433v0.864c0,0.575,0,1.148,0,1.719
						c0,1.142-0.001,2.276-0.001,3.4c-0.001,2.249-0.003,4.461-0.004,6.628l-0.254-0.254c14.504,0.046,27.195,0.086,36.298,0.115
						c4.534,0.031,8.172,0.055,10.714,0.072c1.236,0.014,2.204,0.025,2.897,0.033c0.312,0.007,0.561,0.012,0.758,0.016
						C71.508,229.799,71.599,229.804,71.604,229.81c0.005,0.005-0.074,0.011-0.236,0.016c-0.188,0.004-0.428,0.009-0.727,0.016
						c-0.68,0.008-1.63,0.019-2.842,0.033c-2.528,0.017-6.146,0.042-10.656,0.072c-9.147,0.029-21.9,0.069-36.475,0.115
						l-0.254,0.001l0-0.255c-0.001-2.167-0.003-4.379-0.004-6.628c0-1.125-0.001-2.258-0.001-3.4c0-0.571,0-1.144,0-1.719l0-0.864
						v-0.433v-0.217v-0.108v-0.054v-0.027v-0.014v-0.007v-0.003c0.519-0.519,0.146-0.144,0.263-0.26
						c20.806,0.041,39.302,0.078,50.932,0.102l0.159,0l-0.001,0.158c-0.037,4.256-0.067,7.632-0.087,9.981
						c-0.016,1.118-0.029,1.991-0.038,2.617c-0.007,0.272-0.012,0.49-0.017,0.663C71.615,229.743,71.61,229.815,71.604,229.81z"/>
				</g>
			</g>
		</g>
	</g>
	<g>
		<g>
			<g>
				<rect x="238.904" y="170.625" style="fill:#F5F5F5;" width="50.935" height="13.475"/>
			</g>
		</g>
		<g>
			<g>
				<g>
					<path style="fill:#E0E0E0;" d="M268.302,198.293c-0.005-0.005-0.01-0.088-0.016-0.245c-0.004-0.18-0.01-0.408-0.017-0.691
						c-0.009-0.634-0.022-1.518-0.038-2.652c-0.02-2.326-0.05-5.67-0.087-9.887l0.158,0.158c-11.63,0.023-30.126,0.06-50.932,0.102
						c0.115-0.116-0.262,0.259,0.257-0.259v0.003v0.007v0.014v0.027v0.054v0.108v0.217l0,0.433v0.864c0,0.575,0,1.148,0,1.719
						c0,1.142-0.001,2.276-0.001,3.401c-0.001,2.249-0.003,4.461-0.004,6.628l-0.254-0.254c14.504,0.046,27.195,0.086,36.298,0.115
						c4.534,0.031,8.172,0.055,10.714,0.072c1.236,0.014,2.204,0.025,2.897,0.033c0.312,0.007,0.561,0.012,0.758,0.016
						C268.206,198.282,268.296,198.288,268.302,198.293c0.005,0.005-0.074,0.011-0.236,0.016c-0.188,0.004-0.428,0.01-0.727,0.016
						c-0.68,0.008-1.629,0.019-2.842,0.033c-2.527,0.017-6.146,0.042-10.656,0.072c-9.147,0.029-21.9,0.069-36.475,0.115
						l-0.254,0.001l0-0.255c-0.001-2.167-0.003-4.379-0.004-6.628c0-1.125-0.001-2.258-0.001-3.401c0-0.571,0-1.144,0-1.719l0-0.864
						v-0.433v-0.217v-0.108v-0.054v-0.027v-0.014v-0.007v-0.003c0.519-0.519,0.146-0.144,0.263-0.26
						c20.806,0.042,39.302,0.078,50.932,0.102l0.159,0l-0.001,0.158c-0.037,4.257-0.067,7.633-0.087,9.981
						c-0.016,1.118-0.029,1.991-0.038,2.617c-0.007,0.272-0.012,0.49-0.017,0.663C268.312,198.226,268.307,198.299,268.302,198.293z
						"/>
				</g>
			</g>
		</g>
	</g>
	<g>
		<g>
			<g>
				<g>
					<g>
						<g>
							<g>
								<g>
									<g>
										<g>
											<rect x="53.503" y="33.811" style="fill:#E0E0E0;" width="121.644" height="126.804"/>
										</g>
									</g>
								</g>
							</g>
						</g>
					</g>
				</g>
			</g>
		</g>
		<g>
			<g>
				<g>
					<g>
						<g>
							<g>
								<g>
									<g>
										<g>
											<rect x="45.266" y="33.811" style="fill:#FAFAFA;" width="121.644" height="126.804"/>
										</g>
									</g>
								</g>
							</g>
						</g>
					</g>
				</g>
			</g>
			<g>
				<g>
					<g>
						<g>
							<g>
								<g>
									<g>
										<g>
											<path style="fill:#E0E0E0;" d="M166.947,160.652H45.228V33.773h121.719V160.652z M45.303,160.577h121.568V33.848H45.303
												V160.577z"/>
										</g>
									</g>
								</g>
							</g>
						</g>
					</g>
				</g>
			</g>
		</g>
		<g>
			<g>
				<g>
					<g>
						<g>
							<g>
								<g>
									<g>
										<g>
											<rect x="61.618" y="50.857" style="fill:#FFFFFF;" width="88.939" height="92.711"/>
										</g>
									</g>
								</g>
							</g>
						</g>
					</g>
				</g>
			</g>
		</g>
		<g>
			<g>
				<g>
					<g>
						<g>
							<g>
								<g>
									<g>
										<g>
											<g>
												<path style="fill:#E0E0E0;" d="M61.618,144.185c0.07,0.083-0.775,1.053-2.195,2.552
													c-1.42,1.499-3.416,3.528-5.653,5.731c-2.238,2.205-4.294,4.168-5.81,5.562c-1.517,1.394-2.494,2.218-2.571,2.141
													c-0.077-0.078,0.763-1.042,2.183-2.541c1.42-1.499,3.422-3.532,5.666-5.742c2.244-2.21,4.305-4.178,5.821-5.572
													C60.575,144.921,61.548,144.102,61.618,144.185z"/>
											</g>
										</g>
									</g>
								</g>
							</g>
						</g>
					</g>
				</g>
			</g>
		</g>
		<g>
			<g>
				<g>
					<g>
						<g>
							<g>
								<g>
									<g>
										<g>
											<g>
												<path style="fill:#E0E0E0;" d="M150.557,143.957c0.083-0.07,1.053,0.774,2.552,2.195
													c1.499,1.421,3.527,3.417,5.731,5.654c2.204,2.238,4.168,4.294,5.562,5.811c1.394,1.517,2.218,2.494,2.141,2.57
													c-0.077,0.077-1.042-0.763-2.541-2.183c-1.499-1.421-3.532-3.422-5.743-5.666c-2.21-2.244-4.178-4.305-5.572-5.821
													C151.294,145,150.474,144.027,150.557,143.957z"/>
											</g>
										</g>
									</g>
								</g>
							</g>
						</g>
					</g>
				</g>
			</g>
		</g>
		<g>
			<g>
				<g>
					<g>
						<g>
							<g>
								<g>
									<g>
										<g>
											<g>
												<path style="fill:#E0E0E0;" d="M150.314,51.104c-0.07-0.083,0.774-1.053,2.195-2.552
													c1.42-1.499,3.416-3.528,5.654-5.731c2.238-2.205,4.294-4.168,5.81-5.562c1.517-1.394,2.493-2.218,2.571-2.141
													c0.076,0.077-0.763,1.042-2.183,2.541c-1.421,1.499-3.422,3.532-5.666,5.743c-2.244,2.21-4.305,4.178-5.821,5.572
													C151.356,50.368,150.384,51.187,150.314,51.104z"/>
											</g>
										</g>
									</g>
								</g>
							</g>
						</g>
					</g>
				</g>
			</g>
		</g>
		<g>
			<g>
				<g>
					<g>
						<g>
							<g>
								<g>
									<g>
										<g>
											<g>
												<path style="fill:#E0E0E0;" d="M61.374,51.332c-0.083,0.07-1.053-0.774-2.552-2.195
													c-1.499-1.42-3.528-3.417-5.731-5.654c-2.205-2.238-4.168-4.294-5.561-5.81c-1.394-1.517-2.218-2.494-2.141-2.57
													c0.077-0.077,1.042,0.762,2.541,2.182c1.499,1.42,3.532,3.422,5.743,5.666c2.21,2.244,4.178,4.305,5.572,5.822
													C60.638,50.29,61.457,51.261,61.374,51.332z"/>
											</g>
										</g>
									</g>
								</g>
							</g>
						</g>
					</g>
				</g>
			</g>
		</g>
		<g>
			<g>
				<g>
					<g>
						<g>
							<g>
								<g>
									<g>
										<g>
											<g>
												<path style="fill:#E0E0E0;" d="M150.314,143.568c-0.007-0.006-0.013-0.158-0.019-0.45
													c-0.005-0.316-0.011-0.742-0.02-1.294c-0.01-1.162-0.023-2.834-0.04-5.005c-0.021-4.392-0.051-10.782-0.09-18.895
													c-0.042-16.238-0.102-39.37-0.174-67.067l0.343,0.343c-25.891,0.015-56.298,0.032-88.687,0.051h-0.009l0.394-0.394
													c-0.02,34.029-0.04,65.863-0.055,92.711l-0.339-0.337c26.578,0.071,48.707,0.131,64.222,0.173
													c7.751,0.038,13.849,0.068,18.039,0.088c2.07,0.017,3.663,0.03,4.773,0.039c0.525,0.008,0.931,0.015,1.233,0.019
													C150.163,143.556,150.308,143.562,150.314,143.568c0.007,0.007-0.126,0.013-0.392,0.019
													c-0.294,0.005-0.687,0.011-1.197,0.019c-1.094,0.009-2.666,0.022-4.708,0.039c-4.172,0.02-10.244,0.05-17.962,0.088
													c-15.567,0.042-37.77,0.101-64.437,0.173l-0.338,0.001l0-0.339c-0.016-26.848-0.035-58.682-0.056-92.711l0-0.394h0.394
													h0.009c32.39,0.018,62.796,0.035,88.687,0.051h0.344l-0.001,0.343c-0.072,27.788-0.132,50.996-0.174,67.287
													c-0.039,8.08-0.069,14.444-0.09,18.818c-0.017,2.142-0.031,3.792-0.04,4.939c-0.008,0.536-0.015,0.95-0.019,1.257
													C150.327,143.436,150.321,143.575,150.314,143.568z"/>
											</g>
										</g>
									</g>
								</g>
							</g>
						</g>
					</g>
				</g>
			</g>
		</g>
		<g>
			<g>
				<g>
					<g>
						<g>
							<g>
								<g>
									<g>
										<g>
											<rect x="91.249" y="82.374" style="fill:#EBEBEB;" width="29.678" height="29.678"/>
										</g>
									</g>
								</g>
							</g>
						</g>
					</g>
				</g>
			</g>
		</g>
	</g>
	<g>
		<g>
			<g>
				<rect x="327.89" y="35.545" style="fill:#E0E0E0;" width="139.829" height="202.676"/>
			</g>
		</g>
		<g>
			<g>
				<rect x="320.885" y="35.545" style="fill:#F5F5F5;" width="139.829" height="202.676"/>
			</g>
		</g>
		<g>
			<g>
				<g>
					<rect x="338.258" y="57.496" style="fill:#FFFFFF;" width="105.083" height="158.774"/>
				</g>
			</g>
			<g>
				<g>
					<g>
						<path style="fill:#E0E0E0;" d="M443.341,216.27c0,0-0.014-0.269-0.021-0.777c-0.005-0.524-0.012-1.272-0.021-2.251
							c-0.01-1.995-0.024-4.916-0.042-8.709c-0.022-7.61-0.054-18.699-0.094-32.707c-0.042-27.997-0.102-67.643-0.172-114.33
							l0.349,0.349c-32.105,0.01-67.68,0.02-105.071,0.031h-0.012l0.38-0.38c-0.029,59.896-0.056,115.12-0.077,158.773l-0.303-0.303
							c32.002,0.067,58.233,0.121,76.487,0.159c9.13,0.033,16.261,0.059,21.132,0.077c2.421,0.015,4.275,0.026,5.547,0.034
							C442.679,216.248,443.341,216.27,443.341,216.27s-0.619,0.022-1.854,0.033c-1.259,0.008-3.094,0.019-5.49,0.034
							c-4.855,0.018-11.963,0.044-21.064,0.077c-18.299,0.038-44.595,0.093-76.675,0.159l-0.303,0.001l0-0.304
							c-0.021-43.653-0.048-98.878-0.077-158.773l0-0.38h0.381h0.012c37.391,0.011,72.966,0.022,105.071,0.031l0.35,0l-0.001,0.349
							c-0.07,46.781-0.13,86.506-0.172,114.559c-0.04,13.974-0.072,25.036-0.094,32.628c-0.018,3.762-0.033,6.66-0.042,8.639
							c-0.009,0.962-0.016,1.697-0.021,2.212C443.355,216.028,443.341,216.27,443.341,216.27z"/>
					</g>
				</g>
			</g>
		</g>
		<g>
			<g>
				<g>
					<path style="fill:none;stroke:#FBFBFB;stroke-width:0.25;stroke-miterlimit:10;" d="M438.469,58.555"/>
				</g>
			</g>
		</g>
		<g>
			<g>
				<g>
					<path style="fill:#E0E0E0;" d="M461.107,35.545c0.082,0.063-0.868,1.449-2.492,3.621c-1.625,2.172-3.93,5.127-6.561,8.322
						c-2.633,3.195-5.091,6.024-6.912,8.035c-1.821,2.011-2.999,3.208-3.076,3.14c-0.08-0.07,0.954-1.392,2.669-3.49
						c1.875-2.274,4.181-5.073,6.732-8.168c2.548-3.096,4.852-5.896,6.725-8.171C459.923,36.748,461.022,35.479,461.107,35.545z"/>
				</g>
			</g>
		</g>
		<g>
			<g>
				<g>
					<path style="fill:#FFFFFF;" d="M443.877,215.758c5.219,8.299,11.381,16.005,18.328,22.922"/>
				</g>
			</g>
			<g>
				<g>
					<g>
						<path style="fill:#E0E0E0;" d="M462.205,238.68c-0.069,0.07-1.316-1.013-3.195-2.907c-1.879-1.893-4.369-4.618-6.914-7.798
							c-2.543-3.183-4.654-6.212-6.087-8.461c-1.435-2.25-2.216-3.704-2.133-3.756c0.095-0.06,1.036,1.292,2.578,3.455
							c1.541,2.163,3.707,5.123,6.235,8.288c2.53,3.161,4.94,5.925,6.712,7.904C461.172,237.385,462.284,238.601,462.205,238.68z"/>
					</g>
				</g>
			</g>
		</g>
		<g>
			<g>
				<g>
					<path style="fill:#FFFFFF;" d="M320.865,238.06c6.105-7.533,12.21-15.065,18.315-22.597"/>
				</g>
			</g>
			<g>
				<g>
					<g>
						<path style="fill:#E0E0E0;" d="M339.18,215.463c0.163,0.132-3.805,5.298-8.862,11.538c-5.059,6.241-9.29,11.192-9.454,11.06
							c-0.163-0.132,3.804-5.297,8.863-11.539C334.785,220.282,339.017,215.33,339.18,215.463z"/>
					</g>
				</g>
			</g>
		</g>
		<g>
			<g>
				<g>
					<path style="fill:#E0E0E0;" d="M320.885,35.545c0.165-0.13,4.145,4.628,8.89,10.627c4.746,6.001,8.459,10.97,8.294,11.1
						c-0.165,0.13-4.144-4.627-8.89-10.628C324.434,40.645,320.721,35.675,320.885,35.545z"/>
				</g>
			</g>
		</g>
		<g>
			<g>
				<rect x="375.416" y="89.733" style="fill:#E0E0E0;" width="35.186" height="99.903"/>
			</g>
		</g>
	</g>
	<g>
		<g>
			<g>
				<g>
					<path style="fill:#E0E0E0;" d="M257.277,93.65c-0.005-0.005-0.01-0.088-0.016-0.245c-0.004-0.181-0.01-0.408-0.017-0.691
						c-0.009-0.634-0.022-1.518-0.038-2.652c-0.021-2.326-0.05-5.671-0.087-9.887l0.158,0.158
						c-11.63,0.023-30.126,0.06-50.932,0.102c0.115-0.116-0.262,0.259,0.256-0.259v0.003v0.007v0.014v0.027v0.054v0.108l0,0.217
						v0.433v0.864c0,0.575,0,1.148,0,1.719c0,1.142-0.001,2.276-0.001,3.4c-0.002,2.249-0.003,4.461-0.004,6.628l-0.254-0.254
						c14.504,0.046,27.196,0.087,36.298,0.115c4.534,0.031,8.173,0.055,10.714,0.073c1.236,0.014,2.204,0.025,2.897,0.033
						c0.312,0.007,0.561,0.012,0.758,0.016C257.181,93.639,257.272,93.644,257.277,93.65c0.006,0.005-0.074,0.011-0.236,0.016
						c-0.189,0.004-0.428,0.009-0.727,0.016c-0.68,0.008-1.629,0.019-2.842,0.033c-2.527,0.017-6.146,0.042-10.655,0.072
						c-9.147,0.029-21.9,0.069-36.475,0.115l-0.254,0.001l0-0.255c-0.001-2.167-0.003-4.379-0.004-6.628
						c0-1.125-0.001-2.258-0.001-3.4c0-0.571,0-1.144,0-1.719l0-0.864v-0.433v-0.217V80.28v-0.054v-0.027v-0.014v-0.007v-0.003
						c0.519-0.519,0.146-0.144,0.263-0.26c20.806,0.042,39.302,0.078,50.932,0.102l0.159,0l-0.001,0.158
						c-0.037,4.257-0.067,7.632-0.087,9.981c-0.016,1.118-0.029,1.991-0.038,2.616c-0.007,0.272-0.012,0.49-0.017,0.664
						C257.288,93.583,257.283,93.655,257.277,93.65z"/>
				</g>
			</g>
		</g>
		<g>
			<g>
				<g>
					<path style="fill:#E0E0E0;" d="M264.184,80.175c-0.006-0.006-0.013-0.093-0.019-0.256c-0.005-0.193-0.012-0.428-0.02-0.714
						c-0.011-0.663-0.027-1.564-0.047-2.702c-0.024-2.363-0.058-5.7-0.1-9.803l0.186,0.187c-7.928,0.019-18.714,0.045-30.602,0.073
						c-0.233,0.232,0.313-0.316,0.257-0.258v0.003v0.007v0.014v0.028v0.055v0.111l0,0.221v0.442l0,0.881
						c0,0.586,0,1.168-0.001,1.748c-0.001,1.158-0.002,2.302-0.002,3.43c-0.003,2.254-0.006,4.44-0.009,6.534l-0.247-0.247
						c8.835,0.047,16.441,0.088,21.892,0.117c2.689,0.029,4.843,0.052,6.377,0.068c0.716,0.013,1.287,0.023,1.72,0.031
						C263.963,80.154,264.173,80.164,264.184,80.175c0.01,0.01-0.18,0.02-0.556,0.031c-0.42,0.008-0.973,0.018-1.668,0.031
						c-1.52,0.016-3.656,0.039-6.321,0.068c-5.493,0.029-13.157,0.07-22.059,0.117l-0.247,0.001l0-0.248
						c-0.003-2.094-0.006-4.28-0.009-6.534c-0.001-1.127-0.002-2.272-0.002-3.43c0-0.579-0.001-1.162-0.001-1.748l0-0.881v-0.442
						v-0.221v-0.111v-0.055v-0.028v-0.014v-0.007v-0.003c-0.057,0.055,0.492-0.493,0.262-0.261
						c11.888,0.028,22.673,0.054,30.602,0.073l0.189,0.001L264.37,66.7c-0.042,4.151-0.076,7.526-0.1,9.916
						c-0.02,1.12-0.035,2.007-0.047,2.66C264.209,79.878,264.196,80.188,264.184,80.175z"/>
				</g>
			</g>
		</g>
	</g>
	<g>
		<g>
			<g>
				<g>
					<path style="fill:#E0E0E0;" d="M481.191,323.819c-0.005-0.005-0.011-0.088-0.016-0.245c-0.004-0.181-0.01-0.408-0.017-0.691
						c-0.009-0.634-0.022-1.518-0.038-2.652c-0.021-2.326-0.05-5.67-0.087-9.887l0.158,0.158c-11.63,0.023-30.126,0.06-50.932,0.102
						c0.115-0.116-0.262,0.259,0.257-0.259v0.003v0.007v0.014v0.027v0.054v0.108l0,0.217v0.433v0.864c0,0.575,0,1.148,0,1.719
						c0,1.142-0.001,2.276-0.001,3.4c-0.001,2.249-0.003,4.461-0.004,6.628l-0.254-0.254c14.504,0.046,27.195,0.086,36.298,0.115
						c4.534,0.031,8.173,0.055,10.714,0.072c1.236,0.014,2.204,0.025,2.897,0.033c0.312,0.007,0.561,0.012,0.758,0.016
						C481.095,323.809,481.185,323.814,481.191,323.819c0.005,0.006-0.074,0.011-0.236,0.016c-0.188,0.004-0.428,0.01-0.727,0.016
						c-0.68,0.008-1.63,0.019-2.842,0.033c-2.528,0.017-6.146,0.042-10.656,0.072c-9.147,0.029-21.9,0.069-36.475,0.116
						l-0.254,0.001l0-0.255c-0.001-2.167-0.003-4.379-0.004-6.628c0-1.125-0.001-2.258-0.001-3.4c0-0.571,0-1.144,0-1.719l0-0.864
						v-0.433v-0.217v-0.108v-0.054v-0.027v-0.014v-0.007v-0.003c0.519-0.519,0.146-0.144,0.263-0.26
						c20.806,0.041,39.302,0.078,50.932,0.102l0.159,0l-0.001,0.158c-0.037,4.257-0.067,7.633-0.087,9.981
						c-0.017,1.118-0.029,1.991-0.038,2.616c-0.007,0.272-0.012,0.49-0.017,0.664C481.201,323.753,481.196,323.825,481.191,323.819z
						"/>
				</g>
			</g>
		</g>
		<g>
			<g>
				<g>
					<path style="fill:#E0E0E0;" d="M488.097,310.345c-0.007-0.007-0.013-0.093-0.02-0.257c-0.005-0.193-0.012-0.428-0.02-0.714
						c-0.011-0.663-0.027-1.564-0.047-2.702c-0.024-2.363-0.058-5.699-0.1-9.803l0.186,0.186
						c-7.928,0.019-18.714,0.045-30.602,0.073c-0.233,0.232,0.313-0.316,0.258-0.258v0.003v0.007v0.014v0.028v0.055v0.111l0,0.221
						v0.442l0,0.881c0,0.586,0,1.168-0.001,1.747c-0.001,1.158-0.001,2.302-0.002,3.43c-0.003,2.254-0.006,4.44-0.009,6.534
						l-0.247-0.247c8.835,0.047,16.441,0.088,21.892,0.117c2.689,0.029,4.843,0.052,6.377,0.068c0.716,0.013,1.287,0.023,1.72,0.031
						C487.877,310.324,488.087,310.334,488.097,310.345c0.01,0.01-0.18,0.02-0.556,0.03c-0.42,0.008-0.973,0.018-1.668,0.031
						c-1.52,0.016-3.656,0.039-6.321,0.068c-5.493,0.029-13.157,0.07-22.059,0.117l-0.247,0.001l0-0.248
						c-0.003-2.094-0.006-4.28-0.009-6.534c-0.001-1.127-0.001-2.272-0.002-3.43c0-0.579,0-1.162-0.001-1.747l0-0.881v-0.442v-0.221
						v-0.111v-0.055v-0.028v-0.014v-0.007v-0.003c-0.057,0.055,0.493-0.493,0.262-0.261c11.888,0.028,22.673,0.054,30.602,0.073
						l0.189,0.001l-0.002,0.186c-0.042,4.151-0.076,7.526-0.1,9.916c-0.02,1.12-0.035,2.007-0.047,2.66
						C488.123,310.048,488.11,310.358,488.097,310.345z"/>
				</g>
			</g>
		</g>
	</g>
</g>
<g id="Background_Simple" style="display:none;">
	<g style="display:inline;">
		<path style="fill:#F5F5F5;" d="M430.552,106.667l-1.699-3.803c-14.323-32.057-44.739-54.124-79.465-56.283
			c-4.464-0.277-8.949-0.233-13.417,0.151c-32.167,2.762-62.404,23.017-77.52,51.931c-8.89,17.005-13.332,37.313-27.723,49.887
			c-18.729,16.365-46.66,13.436-71.057,9.589c-24.397-3.847-52.355-6.705-71.014,9.742c-11.685,10.301-17.01,26.371-18.139,41.993
			c-2.989,41.362,21.016,81.704,55.127,104.548s76.774,29.876,117.634,26.86c57.24-4.225,114.218-28.446,152.137-72.16
			C433.335,225.41,449.597,161.398,430.552,106.667z"/>
	</g>
</g>
<g id="Desk">
	<g>
		<g>
			<path style="fill:#263238;" d="M465.831,474.654c0,0.144-96.73,0.26-216.025,0.26c-119.336,0-216.046-0.117-216.046-0.26
				c0-0.144,96.709-0.26,216.046-0.26C369.101,474.394,465.831,474.511,465.831,474.654z"/>
		</g>
	</g>
</g>
<g id="Character_1">
	<g>
		<g>
			<g>
				<g>
					<g>
						<g>
							<g>
								<g>
									<g>
										<g>
											<g>
												<g>
													<g>
														<g>
															<g>
																<g>
																	<path style="fill:#AE7461;" d="M170.107,244.125l1.172-96.163c1.07-23.912-11.953-44.466-35.886-44.873
																		l-2.214,0.091c-22.279,0.921-40.125,18.788-40.998,41.07c-0.813,20.731-1.445,43.646-0.85,54.725
																		c1.232,22.936,24.331,25.557,24.331,25.557c0.051,0,0.142,13.961,0.13,20.701l1.277,15.838l12.216-4.692
																		L170.107,244.125z"/>
																</g>
															</g>
														</g>
													</g>
												</g>
											</g>
										</g>
									</g>
								</g>
							</g>
							<g>
								<g>
									<g>
										<g>
											<g>
												<g>
													<g>
														<g>
															<g>
																<g>
																	<g>
																		<path style="fill:#6F4439;" d="M115.783,224.665c0,0,14.5,0.251,29.514-10.067c0,0-6.476,17.549-29.459,16.429
																			L115.783,224.665z"/>
																	</g>
																</g>
															</g>
														</g>
													</g>
												</g>
											</g>
										</g>
									</g>
								</g>
							</g>
							<g>
								<g>
									<g>
										<g>
											<g>
												<g>
													<g>
														<g>
															<g>
																<g>
																	<g>
																		<g>
																			<g>
																				<g>
																					<g>
																						<g>
																							<g>
																								<path style="fill:#263238;" d="M102.389,163.259c0.01,1.733,1.486,3.153,3.296,3.176
																									c1.807,0.022,3.266-1.361,3.255-3.094c-0.01-1.733-1.485-3.156-3.293-3.178
																									C103.838,160.139,102.379,161.525,102.389,163.259z"/>
																							</g>
																						</g>
																					</g>
																				</g>
																			</g>
																		</g>
																	</g>
																</g>
															</g>
														</g>
													</g>
												</g>
											</g>
										</g>
									</g>
								</g>
							</g>
							<g>
								<g>
									<g>
										<g>
											<g>
												<g>
													<g>
														<g>
															<g>
																<g>
																	<g>
																		<g>
																			<g>
																				<g>
																					<g>
																						<g>
																							<g>
																								<g>
																									<path style="fill:#263238;" d="M97.479,153.394c0.424,0.411,2.83-1.53,6.358-1.666
																										c3.521-0.187,6.184,1.52,6.548,1.073c0.18-0.198-0.266-0.953-1.427-1.727
																										c-1.143-0.771-3.068-1.488-5.264-1.387c-2.196,0.103-4.01,0.987-5.038,1.859
																										C97.606,152.423,97.271,153.211,97.479,153.394z"/>
																								</g>
																							</g>
																						</g>
																					</g>
																				</g>
																			</g>
																		</g>
																	</g>
																</g>
															</g>
														</g>
													</g>
												</g>
											</g>
										</g>
									</g>
								</g>
							</g>
							<g>
								<g>
									<g>
										<g>
											<g>
												<g>
													<g>
														<g>
															<g>
																<g>
																	<g>
																		<g>
																			<g>
																				<g>
																					<g>
																						<g>
																							<g>
																								<path style="fill:#263238;" d="M133.455,162.625c0.01,1.733,1.486,3.154,3.296,3.175
																									c1.807,0.023,3.267-1.36,3.256-3.094c-0.011-1.733-1.487-3.155-3.293-3.178
																									C134.903,159.505,133.445,160.892,133.455,162.625z"/>
																							</g>
																						</g>
																					</g>
																				</g>
																			</g>
																		</g>
																	</g>
																</g>
															</g>
														</g>
													</g>
												</g>
											</g>
										</g>
									</g>
								</g>
							</g>
							<g>
								<g>
									<g>
										<g>
											<g>
												<g>
													<g>
														<g>
															<g>
																<g>
																	<g>
																		<g>
																			<g>
																				<g>
																					<g>
																						<g>
																							<g>
																								<g>
																									<path style="fill:#263238;" d="M132.08,152.783c0.425,0.41,2.835-1.529,6.359-1.665
																										c3.52-0.186,6.184,1.521,6.549,1.072c0.179-0.198-0.262-0.952-1.428-1.726
																										c-1.143-0.772-3.067-1.487-5.264-1.388c-2.196,0.104-4.01,0.989-5.039,1.859
																										C132.211,151.813,131.874,152.601,132.08,152.783z"/>
																								</g>
																							</g>
																						</g>
																					</g>
																				</g>
																			</g>
																		</g>
																	</g>
																</g>
															</g>
														</g>
													</g>
												</g>
											</g>
										</g>
									</g>
								</g>
							</g>
							<g>
								<g>
									<g>
										<g>
											<g>
												<g>
													<g>
														<g>
															<g>
																<g>
																	<g>
																		<g>
																			<g>
																				<g>
																					<g>
																						<g>
																							<g>
																								<path style="fill:#263238;" d="M120.55,180.403c0.008-0.201-2.199-0.49-5.77-0.797
																									c-0.905-0.055-1.765-0.199-1.941-0.807c-0.239-0.641,0.097-1.628,0.491-2.694
																									c0.757-2.214,1.549-4.535,2.379-6.967c3.295-9.916,5.641-18.053,5.241-18.183
																									c-0.401-0.129-3.397,7.803-6.691,17.718c-0.79,2.445-1.547,4.774-2.266,7.003
																									c-0.299,1.038-0.836,2.223-0.321,3.553c0.27,0.663,0.952,1.124,1.535,1.255
																									c0.585,0.153,1.092,0.141,1.539,0.15C118.327,180.68,120.544,180.604,120.55,180.403z"/>
																							</g>
																						</g>
																					</g>
																				</g>
																			</g>
																		</g>
																	</g>
																</g>
															</g>
														</g>
													</g>
												</g>
											</g>
										</g>
									</g>
								</g>
							</g>
							<g>
								<g>
									<g>
										<g>
											<g>
												<g>
													<g>
														<g>
															<g>
																<g>
																	<g>
																		<g>
																			<g>
																				<path style="fill:#263238;" d="M146.39,140.042c-0.315-0.971-3.853-0.635-7.974-1.274
																					c-4.135-0.556-7.431-1.88-8.009-1.039c-0.259,0.404,0.292,1.326,1.611,2.299
																					c1.305,0.972,3.41,1.926,5.885,2.286c2.474,0.355,4.763,0.038,6.291-0.524
																					C145.735,141.231,146.525,140.503,146.39,140.042z"/>
																			</g>
																		</g>
																	</g>
																</g>
															</g>
														</g>
													</g>
												</g>
											</g>
										</g>
									</g>
								</g>
							</g>
							<g>
								<g>
									<g>
										<g>
											<g>
												<g>
													<g>
														<g>
															<g>
																<g>
																	<g>
																		<g>
																			<g>
																				<path style="fill:#263238;" d="M109.93,137.198c-0.966-0.497-3.373,1.279-6.602,2.513
																					c-3.19,1.329-6.173,1.706-6.514,2.726c-0.136,0.484,0.574,1.078,2.036,1.347
																					c1.444,0.273,3.636,0.122,5.842-0.758c2.205-0.882,3.883-2.277,4.727-3.463
																					C110.279,138.367,110.369,137.454,109.93,137.198z"/>
																			</g>
																		</g>
																	</g>
																</g>
															</g>
														</g>
													</g>
												</g>
											</g>
										</g>
									</g>
								</g>
							</g>
							<g>
								<g>
									<g>
										<g>
											<g>
												<g>
													<g>
														<g>
															<g>
																<path style="fill:#AE7461;" d="M170.107,164.244c0.384-0.185,15.574-5.315,15.722,10.394
																	c0.147,15.709-15.655,12.617-15.686,12.166C170.111,186.354,170.107,164.244,170.107,164.244z"/>
															</g>
														</g>
													</g>
												</g>
											</g>
										</g>
									</g>
								</g>
							</g>
							<g>
								<g>
									<g>
										<g>
											<g>
												<g>
													<g>
														<g>
															<g>
																<g>
																	<path style="fill:#6F4439;" d="M174.885,180.808c0.068-0.051,0.276,0.189,0.74,0.397
																		c0.453,0.202,1.23,0.337,2.046,0.022c1.654-0.624,3.026-3.272,3.076-6.105c0.027-1.43-0.286-2.788-0.803-3.91
																		c-0.491-1.145-1.241-1.941-2.078-2.082c-0.833-0.184-1.42,0.321-1.608,0.766c-0.206,0.441-0.103,0.754-0.186,0.782
																		c-0.043,0.039-0.34-0.26-0.219-0.91c0.062-0.313,0.243-0.685,0.609-0.99c0.374-0.31,0.927-0.472,1.509-0.415
																		c1.212,0.073,2.313,1.177,2.882,2.409c0.635,1.237,1.02,2.764,0.99,4.37c-0.071,3.166-1.663,6.144-3.928,6.821
																		c-1.103,0.299-2.027-0.026-2.507-0.393C174.916,181.187,174.831,180.837,174.885,180.808z"/>
																</g>
															</g>
														</g>
													</g>
												</g>
											</g>
										</g>
									</g>
								</g>
							</g>
						</g>
						<g>
							<g>
								<g>
									<g>
										<g>
											<g>
												<g>
													<g>
														<path style="fill:#263238;" d="M60.474,122.794c0.239-0.928,0.904-1.697,1.723-2.194
															c1.788-1.083,3.862-0.966,5.865-1.02c4.984-0.136,9.914-1.468,14.332-3.774c-1.558-0.768-3.016-1.706-4.26-2.919
															c-2.568-2.504-4.071-6.366-2.948-9.772c0.211-0.639,0.574-1.311,1.215-1.516c1.017-0.325,1.921,0.667,2.641,1.454
															c2.369,2.588,4.543,3.685,8.029,3.293c2.165-0.243,4.259-0.753,5.952-1.834c0.067-0.072,0.127-0.15,0.194-0.222
															c0.807-0.852,1.596-1.666,2.373-2.454c0.001-0.003,0.004-0.005,0.005-0.007l-0.002,0.005
															c5.843-5.929,10.879-10.048,16.088-12.214c7.634-3.175,20.447-4.572,28.467-2.565
															c8.021,2.007,15.276,8.413,16.481,16.593c4.441-3.843,11.175-3.887,16.662-1.753l0.136-0.062
															c6.107,2.099,9.636,8.486,11.502,14.669c0.102,0.338,0.191,0.681,0.287,1.021c2.093,3.237,4.921,5.998,8.277,7.902
															c0.592,0.335,1.27,0.747,1.35,1.423c0.079,0.67-0.481,1.232-1.025,1.631c-1.447,1.061-3.137,1.767-4.899,2.102
															c0.573,1.468,1.242,2.893,2.065,4.251c0.7,1.155,1.531,2.538,0.945,3.755c-0.453,0.941-1.637,1.34-2.672,1.2
															c-1.035-0.14-1.957-0.701-2.846-1.25c0.697,1.617,1.394,3.234,2.091,4.85c-2.196,0.408-4.477,0.258-6.622-0.366
															c-1.226,5.816-2.075,16.57-3.524,20.519c-4.169,0.12-5.187-0.322-7.283,0.4c-2.709,0.933-1.617,5.737-5.173,4.409
															c-1.81-0.676-4.654-7.475-5.279-9.303c-4.14-12.135-5.617-25.169-4.315-37.924c-2.55-2.657-5.616-4.817-8.976-6.325
															l0.275,0.242c-6.448-2.158-13.739-4.27-19.799-1.185c-4.701,2.393-7.424,7.33-10.913,11.284
															c-6.614,7.495-14.151,11.54-24.132,12.084c-0.822,6.945-0.959,18.29-1.225,24.765l-5.673-12.891l-0.004,0.053
															c-0.455-0.754-0.833-1.515-1.197-2.277l-0.125-0.231v-0.029c-0.58-1.224-1.133-2.451-1.862-3.661
															c-0.021,0.019-0.041,0.037-0.062,0.056c-3.471,3.133-8.691-1.538-5.969-5.34c0.54-0.755,1.188-1.428,1.933-1.987
															c-1.585,1.523-3.967,2.271-6.076,1.649c-2.109-0.622-3.763-2.729-3.605-4.923c0.108-1.497,1.161-2.846,2.505-3.452
															c-2.83,0.25-5.734-0.334-8.218-1.714C61.554,126.338,59.949,124.836,60.474,122.794z"/>
													</g>
												</g>
											</g>
										</g>
									</g>
								</g>
							</g>
							<g>
								<g>
									<g>
										<g>
											<g>
												<g>
													<g>
														<path style="fill:#455A64;" d="M149.426,106.37c-0.045,0.06,0.97,0.597,2.33,2.083
															c1.347,1.479,2.869,4.063,3.615,7.593c0.382,1.754,0.631,3.719,0.654,5.836c0.033,2.117-0.111,4.386-0.246,6.777
															c-0.127,2.391-0.27,4.917-0.087,7.542c0.092,1.31,0.265,2.641,0.564,3.971c0.304,1.306,0.664,2.724,1.666,3.839
															c0.798,0.909,2.119,1.301,3.257,1.054c1.147-0.216,2.162-0.839,2.9-1.683c1.46-1.743,1.804-3.937,2.149-5.87
															l-0.482,0.064c0.808,1.725,1.637,3.43,2.852,4.784c1.195,1.363,2.839,2.255,4.501,2.385
															c0.827,0.065,1.659-0.076,2.365-0.442c0.72-0.361,1.24-0.967,1.593-1.605c0.336-0.649,0.508-1.36,0.465-2.043
															c-0.047-0.682-0.32-1.326-0.758-1.779l-0.242,0.22c1.796,1.999,3.68,3.063,4.981,3.649
															c0.657,0.294,1.182,0.468,1.537,0.578c0.358,0.102,0.545,0.144,0.55,0.13c0.004-0.016-0.175-0.086-0.521-0.216
															c-0.344-0.136-0.854-0.336-1.492-0.651c-1.263-0.628-3.088-1.721-4.81-3.705l-0.242,0.22
															c0.783,0.812,0.844,2.25,0.192,3.415c-0.329,0.575-0.806,1.115-1.44,1.421c-0.63,0.317-1.388,0.442-2.145,0.374
															c-1.526-0.134-3.058-0.971-4.178-2.268c-1.146-1.294-1.949-2.954-2.747-4.682l-0.339-0.733l-0.143,0.798
															c-0.345,1.931-0.714,4.038-2.046,5.609c-0.661,0.755-1.592,1.319-2.595,1.505c-1.006,0.206-2.072-0.114-2.769-0.892
															c-0.875-0.965-1.243-2.307-1.539-3.592c-0.293-1.297-0.465-2.601-0.56-3.889c-0.187-2.58-0.058-5.09,0.057-7.478
															c0.121-2.39,0.25-4.669,0.197-6.813c-0.043-2.143-0.318-4.135-0.729-5.912c-0.805-3.575-2.413-6.19-3.832-7.649
															C150.477,106.843,149.426,106.37,149.426,106.37z"/>
													</g>
												</g>
											</g>
										</g>
									</g>
								</g>
							</g>
							<g>
								<g>
									<g>
										<g>
											<g>
												<g>
													<g>
														<path style="fill:#455A64;" d="M78.558,129.549c-0.005,0.007,0.058,0.06,0.186,0.155
															c0.156,0.111,0.346,0.247,0.579,0.412c0.253,0.185,0.575,0.401,0.981,0.613c0.4,0.223,0.855,0.495,1.407,0.72
															c2.147,0.99,5.583,1.959,9.861,1.658c4.238-0.287,9.311-1.847,13.817-5.281c4.556-3.355,8.532-8.267,11.765-13.875
															c1.641-2.803,2.971-5.672,4.443-8.325c1.463-2.654,3.083-5.111,5.058-7.057c1.951-1.958,4.226-3.413,6.579-4.097
															c1.173-0.364,2.358-0.456,3.489-0.442c1.135,0.047,2.212,0.265,3.206,0.578c1.99,0.643,3.601,1.719,4.826,2.832
															c1.23,1.122,2.06,2.313,2.633,3.336c1.069,2.102,1.143,3.458,1.225,3.434c0.01-0.001,0.003-0.082-0.021-0.241
															c-0.032-0.191-0.07-0.421-0.117-0.703c-0.119-0.615-0.395-1.504-0.902-2.587c-0.553-1.056-1.375-2.29-2.614-3.46
															c-1.234-1.159-2.869-2.286-4.911-2.972c-1.02-0.335-2.131-0.571-3.307-0.632c-1.171-0.027-2.416,0.062-3.63,0.428
															c-2.445,0.689-4.799,2.18-6.804,4.173c-2.032,1.984-3.69,4.483-5.17,7.154c-1.491,2.672-2.822,5.534-4.448,8.311
															c-3.208,5.567-7.126,10.423-11.595,13.747c-4.423,3.404-9.375,4.965-13.549,5.3c-4.207,0.344-7.601-0.551-9.748-1.471
															C79.632,130.324,78.599,129.483,78.558,129.549z"/>
													</g>
												</g>
											</g>
										</g>
									</g>
								</g>
							</g>
							<g>
								<g>
									<g>
										<g>
											<g>
												<g>
													<g>
														<path style="fill:#455A64;" d="M76.351,119.47c-0.019,0.033,0.277,0.232,0.831,0.565
															c0.548,0.344,1.388,0.765,2.456,1.212c1.066,0.456,2.385,0.878,3.88,1.225c1.499,0.321,3.178,0.554,4.951,0.6
															c1.773,0.026,3.46-0.136,4.972-0.394c1.508-0.287,2.843-0.653,3.927-1.064c1.085-0.403,1.942-0.79,2.503-1.11
															c0.567-0.311,0.871-0.497,0.854-0.53c-0.046-0.091-1.308,0.577-3.48,1.28c-1.083,0.36-2.405,0.682-3.888,0.936
															c-1.488,0.227-3.14,0.371-4.878,0.345c-1.736-0.046-3.381-0.258-4.858-0.546c-1.471-0.316-2.779-0.691-3.846-1.095
															C77.634,120.101,76.4,119.382,76.351,119.47z"/>
													</g>
												</g>
											</g>
										</g>
									</g>
								</g>
							</g>
						</g>
					</g>
				</g>
			</g>
			<g>
				<g>
					<g>
						<g>
							<g>
								<g>
									<g>
										<g>
											<g>
												<g>
													<g>
														<g>
															<g>
																<g>
																	<path style="fill:#263238;" d="M120.88,191.138c0.183-0.568,3.892,0.863,7.754-1.287
																		c3.868-2.142,4.986-6.255,5.515-6.083c0.253,0.039,0.378,1.159-0.224,2.845c-0.579,1.657-2.031,3.842-4.394,5.159
																		c-2.365,1.309-4.84,1.305-6.409,0.841C121.517,192.153,120.759,191.384,120.88,191.138z"/>
																</g>
															</g>
														</g>
													</g>
												</g>
											</g>
										</g>
									</g>
								</g>
							</g>
						</g>
					</g>
				</g>
			</g>
		</g>
		<g>
			<g>
				<path style="fill:#455A64;" d="M115.783,241.611c0,0-38.299,15.995-48.578,23.507c-10.279,7.512-3.046,58.87-3.837,69.545
					c-0.791,10.675,0.742,90.013,0.742,90.013s-5.459,42.208-3.363,49.659c0,0,61.966,2.272,86.083,1.085s72.988,0.343,72.988,0.343
					l-1.467-56.097l-1.977-87.771l15.024-76.306l-59.344-21.913l-1.259-3.778c0,0-21.696,19.573-35.138,18.782
					C122.214,247.891,115.783,241.611,115.783,241.611z"/>
			</g>
			<g style="opacity:0.3;">
				<g>
					<path d="M220.764,404.586c-1.35-3.498-4.015-6.305-6.688-8.934c-19.101-18.784-42.044-33.645-66.996-43.396
						c-9.661-3.775-19.765-6.818-30.133-7.12c-10.368-0.302-21.097,2.354-29.112,8.938c-10.593,8.702-15.036,22.836-16.961,36.409
						c-1.925,13.573-1.905,27.533-5.992,40.618l-2.394,12.066c3.978,1.745,8.794,0.256,12.067-2.601
						c3.273-2.857,5.301-6.851,7.108-10.801c5.789-12.648,10.147-25.95,12.966-39.572c1.611-7.783,3.126-16.394,9.289-21.413
						c6.778-5.519,16.716-4.586,25.07-2.016c27.614,8.495,48.521,30.594,72.751,46.329c5.32,3.455,12.9,6.434,17.431,1.993
						C221.848,412.462,222.114,408.085,220.764,404.586z"/>
				</g>
			</g>
			<g>
				<path style="fill:#455A64;" d="M231.399,255.59c0,0,10.134,5.587,14.258,12.136c4.123,6.548,20.615,56.026,20.615,56.026
					l-54.899,16.286l-7.19-42.848L231.399,255.59z"/>
			</g>
			<g>
				<path style="fill:#455A64;" d="M69.041,263.865c0,0-8.142,2.294-13.914,10.968c-4.381,6.583-23.694,57.553-23.694,57.553
					l37.182,19.683L69.041,263.865z"/>
			</g>
			<g>
				<g>
					<path style="fill:#FF725E;" d="M64.11,395.246c0-32.839,0-65.678,0-98.517"/>
				</g>
				<g>
					<g>
						<path style="fill:#263238;" d="M64.11,296.73c0.144,0,0.26,22.055,0.26,49.256c0,27.21-0.117,49.261-0.26,49.261
							c-0.144,0-0.26-22.051-0.26-49.261C63.85,318.785,63.966,296.73,64.11,296.73z"/>
					</g>
				</g>
			</g>
			<g>
				<g>
					<path style="fill:#263238;" d="M227.769,259.025c0.025,0.026-0.348,0.447-1.043,1.184c-0.701,0.731-1.688,1.815-2.873,3.181
						c-2.373,2.729-5.441,6.69-8.282,11.42c-2.831,4.738-4.876,9.313-6.162,12.693c-0.646,1.689-1.136,3.071-1.449,4.034
						c-0.322,0.96-0.517,1.488-0.551,1.478c-0.035-0.01,0.094-0.556,0.358-1.537c0.254-0.984,0.693-2.388,1.298-4.102
						c1.203-3.428,3.21-8.061,6.061-12.833c2.86-4.763,5.998-8.718,8.453-11.397c1.226-1.342,2.257-2.391,3.005-3.08
						C227.324,259.371,227.744,259,227.769,259.025z"/>
				</g>
			</g>
			<g>
				<g>
					<path style="fill:#263238;" d="M214.988,342.144c-0.143,0.015-1.239-9.144-2.448-20.455
						c-1.209-11.315-2.073-20.497-1.93-20.513c0.143-0.015,1.239,9.142,2.448,20.457
						C214.267,332.944,215.131,342.129,214.988,342.144z"/>
				</g>
			</g>
		</g>
		<g>
			<g>
				<path style="fill:#AE7461;" d="M161.662,333.794l55.386,27.986l0.552-1.352l-2.407-21.524l46.016-13.651
					c0,0,4.469,51.35,6.971,62.143c3.912,16.874-9.823,37.316-34.813,37.28c-13.354-0.019-92.551-62.592-92.551-62.592
					L161.662,333.794z"/>
			</g>
			<g>
				<path style="fill:#AE7461;" d="M76.621,331.768l15.14,29.278l-9.589,28.859l-4.106,11.585c0,0-10.945,42.611-22.772,43.644
					c-11.827,1.033-20.822-0.79-30.023-18.773c-10.008-19.56,4.302-73.057,8.824-92.566l29.062,14.447L76.621,331.768"/>
			</g>
			<g>
				<path style="fill:#AE7461;" d="M136.565,320.25c-2.244-0.761-7.812,3.554-11.124,6.384c-3.312,2.829-9.322,5.794-9.322,5.794
					s24.016-21.076,23.959-24.298c-0.058-3.222-1.544-5.478-5.675-3.627c0,0,4.741-3.796,0.642-7.939
					c-4.099-4.143-30.002,19.545-30.002,19.545l-1.118-1.13c0,0,22.509-19.585,21.171-21.391c-1.339-1.806-5.077-3.324-9.745,0.697
					c-4.667,4.021-22.779,18.528-26.346,22.337c-6.227,6.65-8.702,5.744-10.876,5.684l-14.972,25.937l27.469,15.219
					c0,0,13.212-4.574,27.234-20.384c0,0,14.596-11.011,17.613-14.741C138.49,324.606,138.809,321.011,136.565,320.25z"/>
			</g>
			<g>
				<g>
					<path style="fill:#AE7461;" d="M141.963,362.845c0,0-14.873-1.035-33.705-13.411c0,0-18.087-7.277-22.231-10.278
						c-4.143-3.001-5.472-6.613-3.373-8.021c2.098-1.408,9.03,1.487,13.227,3.479c4.196,1.992,11.208,3.373,11.208,3.373
						s-30.584-15.018-31.421-18.351c-0.837-3.333,0.066-6.069,4.834-5.312c0,0-5.936-2.589-2.869-7.994
						c2.8-4.934,30.749,8.952,35.604,11.412c0.403,0.204,0.893,0.055,1.117-0.338l0,0c0.238-0.419,0.079-0.952-0.35-1.171
						c-3.535-1.809-18.036-9.301-24.048-13.509c-3.808-2.666,1.541-7.64,7.464-4.798c5.923,2.842,28.43,13.85,33.968,14.394
						c5.538,0.544,12.898,1.564,13.482,0.076c0.584-1.487-2.643-7.476-4.024-10.079c-1.381-2.603-3.613-8.286,3.054-9.96
						c0,0,9.495,11.885,12.55,16.347c3.055,4.462,8.221,26.493,8.221,26.493"/>
				</g>
				<g>
					<g>
						<path style="fill:#6F4439;" d="M164.67,335.196c0,0-0.082-0.274-0.22-0.814c-0.141-0.553-0.346-1.354-0.613-2.403
							c-0.544-2.113-1.345-5.236-2.481-9.243c-0.565-2.004-1.224-4.227-2.01-6.642c-0.393-1.207-0.825-2.461-1.322-3.745
							c-0.497-1.284-1.05-2.609-1.873-3.828c-3.461-4.831-7.701-10.152-12.39-16.054l0.182,0.061
							c-0.939,0.289-1.917,0.594-2.705,1.221c-0.795,0.602-1.385,1.473-1.591,2.475c-0.221,1-0.086,2.071,0.189,3.096
							c0.282,1.03,0.716,2.031,1.236,3.004c1.045,1.964,2.117,3.979,3.042,6.126c0.432,1.087,0.931,2.165,1.024,3.436
							c0.02,0.156-0.015,0.332-0.056,0.506c-0.033,0.18-0.184,0.362-0.325,0.457c-0.293,0.209-0.606,0.29-0.911,0.36
							c-0.613,0.127-1.225,0.155-1.836,0.168c-2.444,0.018-4.901-0.256-7.399-0.504c-1.252-0.149-2.499-0.22-3.783-0.428
							c-1.293-0.214-2.515-0.64-3.752-1.05c-4.913-1.736-9.814-3.925-14.835-6.199c-5.016-2.272-10.123-4.766-15.341-7.215
							c-1.292-0.551-2.738-0.78-4.134-0.559c-1.382,0.199-2.77,0.889-3.5,2.062c-0.37,0.576-0.436,1.301-0.148,1.898
							c0.299,0.603,0.816,1.054,1.463,1.456c1.226,0.841,2.509,1.621,3.796,2.403c5.181,3.085,10.605,5.996,16.14,8.893l2.083,1.082
							l1.047,0.539l0.537,0.279c0.222,0.129,0.396,0.341,0.479,0.584c0.183,0.487-0.041,1.084-0.501,1.33
							c-0.224,0.127-0.494,0.172-0.748,0.123c-0.279-0.06-0.432-0.183-0.609-0.26l-2.124-1.057
							c-2.844-1.399-5.729-2.763-8.658-4.079c-5.6-2.481-11.204-4.87-16.951-6.403c-1.437-0.361-2.892-0.669-4.34-0.729
							c-0.717-0.024-1.453,0.014-2.076,0.267c-0.308,0.126-0.575,0.316-0.744,0.572c-0.167,0.28-0.312,0.63-0.47,0.941
							c-0.563,1.296-0.577,2.803,0.106,4.014c0.65,1.223,1.834,2.147,3.059,2.753l1.439,0.712l-1.581-0.226
							c-0.973-0.139-1.985-0.209-2.887,0.074c-0.909,0.258-1.606,0.969-1.802,1.892c-0.232,0.909-0.112,1.9,0.097,2.839
							c0.021,0.125,0.053,0.236,0.103,0.311c0.038,0.086,0.077,0.177,0.161,0.265c0.133,0.182,0.29,0.354,0.47,0.517
							c0.341,0.332,0.719,0.643,1.108,0.936c3.14,2.331,6.551,4.228,9.863,6.115c6.674,3.715,13.255,7.093,19.615,10.254
							l1.618,0.804l-1.765-0.369c-2.925-0.612-5.767-1.344-8.498-2.287c-1.367-0.456-2.686-1.069-3.949-1.665
							c-1.278-0.584-2.557-1.132-3.841-1.627c-1.284-0.492-2.572-0.936-3.871-1.263c-1.277-0.304-2.663-0.594-3.82-0.202
							c-0.548,0.217-0.975,0.728-1.112,1.299c-0.147,0.58-0.043,1.214,0.164,1.795c0.424,1.173,1.217,2.193,2.081,3.077
							c0.879,0.88,1.859,1.646,2.893,2.278c1.054,0.618,2.122,1.19,3.194,1.721c2.14,1.069,4.257,2.043,6.321,2.965
							c4.132,1.84,8.05,3.492,11.71,4.984l0.015,0.006l0.013,0.008c9.666,6.372,18.276,9.741,24.247,11.508
							c2.994,0.886,5.347,1.382,6.941,1.665c0.798,0.14,1.406,0.229,1.814,0.285c0.409,0.053,0.617,0.084,0.617,0.084
							s-0.211-0.002-0.622-0.041c-0.411-0.042-1.022-0.117-1.823-0.243c-1.601-0.256-3.965-0.726-6.973-1.589
							c-5.999-1.72-14.653-5.052-24.372-11.407l0.027,0.014c-3.67-1.48-7.595-3.119-11.738-4.948
							c-2.071-0.917-4.194-1.887-6.345-2.954c-1.077-0.53-2.154-1.103-3.225-1.727c-1.068-0.65-2.066-1.426-2.975-2.331
							c-0.892-0.91-1.72-1.956-2.183-3.221c-0.224-0.627-0.352-1.333-0.18-2.03c0.171-0.695,0.671-1.309,1.353-1.584
							c1.383-0.458,2.765-0.122,4.081,0.175c1.326,0.331,2.628,0.778,3.924,1.272c1.295,0.496,2.583,1.045,3.869,1.63
							c1.286,0.603,2.553,1.19,3.914,1.643c2.701,0.928,5.539,1.654,8.439,2.256l-0.147,0.435
							c-6.373-3.155-12.96-6.525-19.651-10.241c-3.326-1.891-6.732-3.776-9.93-6.146c-0.398-0.3-0.786-0.617-1.153-0.974
							c-0.188-0.17-0.365-0.361-0.526-0.581c-0.16-0.183-0.319-0.541-0.349-0.759c-0.217-0.985-0.357-2.034-0.096-3.077
							c0.134-0.51,0.358-1.033,0.755-1.424c0.386-0.389,0.871-0.684,1.387-0.829c1.033-0.321,2.099-0.236,3.117-0.093l-0.142,0.486
							c-1.34-0.664-2.568-1.616-3.306-2.977c-0.767-1.343-0.742-3.068-0.131-4.453c0.174-0.344,0.308-0.68,0.518-1.031
							c0.238-0.362,0.604-0.611,0.975-0.763c0.754-0.302,1.536-0.328,2.291-0.307c1.518,0.064,2.993,0.379,4.451,0.744
							c5.813,1.55,11.421,3.943,17.037,6.43c2.935,1.319,5.825,2.686,8.674,4.087l2.128,1.06c0.182,0.085,0.359,0.199,0.473,0.213
							c0.133,0.026,0.276,0.002,0.396-0.065c0.243-0.13,0.364-0.448,0.266-0.706c-0.044-0.13-0.135-0.241-0.253-0.309l-0.51-0.264
							l-1.048-0.54l-2.085-1.084c-5.54-2.903-10.965-5.818-16.163-8.916c-1.293-0.786-2.579-1.57-3.819-2.422
							c-0.616-0.381-1.291-0.929-1.639-1.668c-0.364-0.747-0.261-1.69,0.175-2.358c0.861-1.368,2.373-2.08,3.857-2.302
							c1.501-0.236,3.04,0.013,4.403,0.595c5.264,2.475,10.329,4.958,15.348,7.238c5.011,2.277,9.908,4.472,14.785,6.204
							c1.221,0.408,2.446,0.834,3.674,1.037c1.234,0.204,2.521,0.283,3.76,0.432c2.493,0.252,4.949,0.53,7.347,0.516
							c0.596-0.011,1.194-0.039,1.755-0.155c0.276-0.06,0.553-0.143,0.747-0.283c0.199-0.122,0.218-0.343,0.216-0.624
							c-0.074-1.105-0.559-2.223-0.983-3.28c-0.911-2.125-1.973-4.137-3.013-6.102c-0.526-0.99-0.97-2.02-1.26-3.088
							c-0.282-1.063-0.426-2.19-0.185-3.273c0.224-1.085,0.881-2.047,1.736-2.687c0.851-0.669,1.866-0.98,2.839-1.276l0.108-0.033
							l0.075,0.094c4.675,5.921,8.891,11.252,12.342,16.116c0.839,1.255,1.392,2.605,1.885,3.894
							c0.494,1.294,0.919,2.553,1.307,3.765c0.774,2.424,1.42,4.653,1.971,6.663c1.109,4.018,1.879,7.15,2.392,9.271
							c0.247,1.054,0.435,1.859,0.566,2.415C164.621,334.914,164.67,335.196,164.67,335.196z"/>
					</g>
				</g>
			</g>
			<g>
				<g>
					<path style="fill:#6F4439;" d="M66.949,341.921c0.015,0.009-0.124,0.271-0.404,0.762c-0.286,0.487-0.687,1.218-1.259,2.126
						c-1.112,1.835-2.814,4.434-5.001,7.586c-4.341,6.328-10.842,14.703-17.451,24.34c-3.265,4.845-6.332,9.507-8.597,14.023
						c-2.289,4.503-3.678,8.88-4.222,12.656c-0.571,3.777-0.331,6.897,0.038,8.993c0.18,1.052,0.383,1.859,0.531,2.401
						c0.151,0.542,0.223,0.831,0.206,0.837c-0.017,0.006-0.122-0.272-0.306-0.807c-0.181-0.535-0.417-1.339-0.629-2.394
						c-0.433-2.102-0.733-5.256-0.203-9.082c0.503-3.823,1.874-8.268,4.158-12.818c2.262-4.566,5.326-9.248,8.596-14.102
						c6.625-9.66,13.169-17.994,17.581-24.259c2.223-3.12,3.968-5.683,5.131-7.482c0.598-0.89,1.026-1.603,1.341-2.072
						C66.764,342.156,66.933,341.912,66.949,341.921z"/>
				</g>
			</g>
			<g>
				<g>
					<path style="fill:#6F4439;" d="M111.528,328.756c-0.016,0.032-0.444-0.147-1.205-0.499c-0.761-0.35-1.852-0.879-3.194-1.544
						c-2.767-1.399-6.41-3.241-10.437-5.277c-4.084-2.04-7.843-3.751-10.592-4.929c-1.302-0.553-2.395-1.017-3.261-1.385
						c-0.77-0.328-1.19-0.525-1.178-0.559c0.013-0.034,0.457,0.1,1.251,0.37c0.795,0.266,1.932,0.688,3.329,1.233
						c2.791,1.094,6.59,2.759,10.683,4.803c4.091,2.045,7.733,4.005,10.374,5.416c1.245,0.675,2.289,1.242,3.117,1.69
						C111.147,328.483,111.545,328.724,111.528,328.756z"/>
				</g>
			</g>
			<g>
				<g>
					<path style="fill:#6F4439;" d="M240.171,376.334c-0.025,0.026-0.418-0.278-1.104-0.847c-0.697-0.557-1.715-1.352-3.016-2.274
						c-2.589-1.865-6.323-4.221-10.536-6.67c-4.224-2.435-8.12-4.514-10.966-5.969c-1.356-0.688-2.49-1.262-3.376-1.711
						c-0.8-0.399-1.236-0.635-1.221-0.668s0.479,0.141,1.306,0.484c0.825,0.348,2.01,0.875,3.455,1.566
						c2.894,1.373,6.827,3.406,11.063,5.848c4.225,2.457,7.945,4.873,10.493,6.824c1.281,0.966,2.271,1.81,2.931,2.417
						C239.85,375.954,240.196,376.308,240.171,376.334z"/>
				</g>
			</g>
		</g>
	</g>
</g>
<g id="Character_2">
	<g>
		<g>
			<g>
				<path style="fill:#263238;" d="M269.676,121.549c0.644-3.632,2.241-7.301,5.277-9.398c3.719-2.568,8.667-2.238,13.13-1.521
					c6.39,1.027,13.264,3.019,16.903,8.37c2.098,3.085,2.824,6.958,2.584,10.681c-0.24,3.723-1.387,7.331-2.773,10.795l-16.85,7.089
					c-4.001-6.362-12.96-8.296-16.746-14.789C269.258,129.445,269.002,125.347,269.676,121.549z"/>
			</g>
			<g>
				<path style="fill:#263238;" d="M432.965,263.564c0.607-1.64,2.441-2.389,3.987-3.207c5.54-2.931,9.211-9.092,9.151-15.359
					c-0.06-6.267-3.848-12.357-9.442-15.181c-1.381-0.697-2.901-1.24-3.951-2.375c-2.613-2.828-0.963-7.361-1.549-11.167
					c-1.241-8.057-12.01-11.194-14.901-18.816c-1.763-4.649-0.177-9.799,0.767-14.681c0.944-4.882,0.874-10.75-3.027-13.834
					c-2.1-1.66-4.951-2.166-6.983-3.908c-4.19-3.593-3.009-10.188-3.946-15.628c-1.476-8.569-9.835-15.393-18.525-15.124
					c0,0,4.471-6.91-3.888-12.01c-10.09-6.157-11.929,1.477-16.172-4.073c-4.51-5.899-13.44-7.871-20.015-4.421
					c-2.049,1.075-3.872,2.601-6.056,3.368c-2.665,0.936-5.578,0.648-8.395,0.849c-10.74,0.768-30.25,10.821-26.224,25.2
					l55.294,128.399c0,0,12.74,4.587,22.086,10.686c2.049,1.337,2.733,19.2,5.057,19.965c2.9,0.955,6.084,0.683,9.027-0.133
					c6.391-1.772,12.021-6.139,15.325-11.889c6.017,3.837,14.549,3.152,19.878-1.594c5.328-4.746,6.991-13.143,3.873-19.562
					C433.485,267.314,432.287,265.394,432.965,263.564z"/>
			</g>
			<g>
				<path style="fill:#FFBF9D;" d="M299.514,161.604l-0.66-8.25l49.037-12.419c15.198-2.538,32.659,11.796,34.549,27.087
					c2.1,16.989,3.995,37.815,2.74,50.66c-2.524,25.83-21.938,30.266-21.938,30.266l1.42,25.406l-56.542,4.115L299.514,161.604z"/>
			</g>
			<g>
				<path style="fill:#263238;" d="M373.169,191.848c0.165,1.729-1.163,3.295-2.965,3.501c-1.799,0.206-3.395-1.026-3.56-2.754
					c-0.166-1.729,1.161-3.297,2.96-3.503C371.407,188.885,373.004,190.119,373.169,191.848z"/>
			</g>
			<g>
				<path style="fill:#263238;" d="M377.683,179.217c-0.381,0.452-2.978-1.238-6.509-1.016c-3.529,0.171-6.012,2.143-6.42,1.734
					c-0.2-0.179,0.168-0.977,1.247-1.867c1.062-0.885,2.908-1.794,5.109-1.917c2.2-0.12,4.099,0.578,5.212,1.343
					C377.458,178.261,377.872,179.013,377.683,179.217z"/>
			</g>
			<g>
				<path style="fill:#263238;" d="M341.339,192.785c0.166,1.729-1.163,3.295-2.965,3.501c-1.799,0.205-3.395-1.026-3.56-2.755
					c-0.166-1.729,1.162-3.297,2.961-3.503C339.577,189.821,341.173,191.055,341.339,192.785z"/>
			</g>
			<g>
				<path style="fill:#263238;" d="M343.014,181.964c-0.382,0.452-2.981-1.237-6.509-1.016c-3.529,0.171-6.012,2.143-6.421,1.733
					c-0.198-0.18,0.165-0.976,1.248-1.866c1.062-0.886,2.908-1.795,5.108-1.917c2.201-0.121,4.099,0.578,5.213,1.342
					C342.785,181.008,343.201,181.76,343.014,181.964z"/>
			</g>
			<g>
				<path style="fill:#263238;" d="M357.404,207.379c-0.029-0.199,2.144-0.71,5.673-1.379c0.896-0.147,1.739-0.378,1.854-1.003
					c0.173-0.664-0.263-1.614-0.763-2.636c-0.979-2.131-2.004-4.365-3.08-6.706c-4.291-9.553-7.455-17.429-7.069-17.599
					c0.387-0.17,4.178,7.436,8.469,16.989c1.036,2.356,2.027,4.603,2.97,6.753c0.403,1.004,1.06,2.131,0.681,3.51
					c-0.203,0.688-0.835,1.217-1.405,1.408c-0.567,0.21-1.073,0.251-1.518,0.305C359.649,207.429,357.43,207.579,357.404,207.379z"
					/>
			</g>
			<g>
				<path style="fill:#FF9A6C;" d="M363.234,249.017c0,0-18.023,2.146-35.693-7.079c0,0,9.72,17.395,36.061,13.459L363.234,249.017z
					"/>
			</g>
			<g>
				<path style="fill:#263238;" d="M324.775,176.177c0.061-1.021,3.577-1.588,7.414-3.247c3.87-1.583,6.733-3.699,7.506-3.028
					c0.353,0.326,0.051,1.358-0.982,2.636c-1.021,1.273-2.823,2.728-5.132,3.703c-2.311,0.969-4.611,1.238-6.235,1.078
					C325.711,177.165,324.761,176.658,324.775,176.177z"/>
			</g>
			<g>
				<g>
					<g>
						<g>
							<g>
								<g>
									<g>
										<g>
											<g>
												<g>
													<g>
														<g>
															<g>
																<g>
																	<g>
																		<g>
																			<g>
																				<g>
																					<g>
																						<g>
																							<path style="fill:#263238;" d="M365.972,165.275c0.896-0.478,2.781,1.277,5.44,2.508
																								c2.616,1.325,5.161,1.715,5.34,2.716c0.061,0.475-0.624,1.05-1.924,1.302
																								c-1.285,0.256-3.169,0.092-4.982-0.785c-1.812-0.88-3.109-2.257-3.703-3.423
																								C365.535,166.416,365.561,165.522,365.972,165.275z"/>
																						</g>
																					</g>
																				</g>
																			</g>
																		</g>
																	</g>
																</g>
															</g>
														</g>
													</g>
												</g>
											</g>
										</g>
									</g>
								</g>
							</g>
						</g>
					</g>
				</g>
			</g>
			<g>
				<path style="fill:#263238;" d="M382.343,149.622c-5.771-7.556-14.144-13.084-23.359-15.423l-41.426,5.209l-11.321,6.812
					c-0.778-2.61,1.323-5.579,1.323-5.579c-3.893-2.984-17.188-7.784-26.586,2.041c-3.39,3.544-6.224,12.974-6.302,17.878
					c-0.03,1.856,0.147,4.117-1.405,5.137c-0.543,0.357-1.203,0.473-1.837,0.611c-10.537,2.307-18.018,14.005-15.693,24.538
					c0.153,0.695,0.344,1.406,0.227,2.108c-0.185,1.106-1.077,1.93-1.846,2.745c-5.016,5.31-6.234,13.849-2.902,20.349
					c1.028,2.006,2.46,3.881,2.818,6.107c0.639,3.984-2.271,7.536-4.525,10.882c-6.76,10.036-8.212,24.616-0.277,33.751
					c1.929,2.221,4.414,4.202,5.137,7.053c0.353,1.394,0.238,2.856,0.227,4.294c-0.051,7.29,3.793,15.447,10.919,16.984
					c3.956,0.853,8.759-0.263,11.574,2.644c1.226,1.267,1.744,3.036,2.525,4.617c2.981,6.03,10.609,9.313,17.036,7.332
					c6.428-1.982,8.559-28.062,7.627-34.723c7.786-2.83,13.548-3.332,13.184-11.608c0,0-1.203-14.244,1.102-21.183
					c2.305-6.939-2.319-21.705-4.955-28.876c-2.636-7.17,0.505-23.867,1.21-30.504c0.123-1.158-0.103-3.169-0.55-5.678l0.004,0.005
					c-0.002-0.006-0.004-0.013-0.006-0.019c-0.288-1.613-0.667-3.43-1.111-5.378c-0.162-1.815-0.176-3.653-0.148-5.348
					c0.101-6.275,6.409-10.771,12.358-8.771c1.438,0.484,2.944,0.761,4.462,0.803c4.896,0.135,9.798-2.189,12.794-6.063
					c5.616,5.988,14.693,8.471,22.575,6.173c3.199,4.465,6.45,8.987,10.708,12.458c4.257,3.471,9.714,5.825,15.173,5.215
					C391.243,166.71,388.114,157.178,382.343,149.622z"/>
			</g>
			<g>
				<path style="fill:#455A64;" d="M378.035,157.036c-0.075-0.006,0.046-0.932-0.093-2.606c-0.148-1.658-0.616-4.115-2.12-6.754
					c-1.477-2.61-4.093-5.415-7.93-6.809c-3.762-1.414-8.649-1.451-12.882,0.795l-0.3,0.16l-0.217-0.264
					c-1.542-1.874-3.46-3.563-5.644-4.941c-4.862-3.002-10.497-4.136-15.395-3.497c-4.937,0.584-9.029,2.8-11.929,5.154
					c-2.923,2.385-4.707,4.928-5.777,6.738c-1.049,1.836-1.45,2.949-1.531,2.917c-0.027-0.01,0.059-0.292,0.249-0.822
					c0.174-0.536,0.515-1.295,0.995-2.253c0.996-1.884,2.74-4.535,5.684-7.038c2.921-2.47,7.102-4.816,12.212-5.466
					c5.069-0.704,10.904,0.444,15.937,3.552c2.262,1.426,4.248,3.182,5.841,5.134l-0.516-0.104
					c4.491-2.359,9.606-2.268,13.529-0.744c4.007,1.51,6.691,4.498,8.147,7.225c1.488,2.764,1.88,5.304,1.939,6.999
					c0.03,0.854-0.009,1.516-0.074,1.957C378.103,156.811,378.061,157.039,378.035,157.036z"/>
			</g>
			<g>
				<path style="fill:#455A64;" d="M283.54,156.706c0.154,0.083,0.916-1.601,2.89-3.717c1.932-2.103,5.294-4.559,9.601-5.415
					c4.31-0.842,8.352,0.154,10.938,1.367c2.63,1.208,3.973,2.478,4.085,2.342c0.04-0.044-0.25-0.404-0.868-0.962
					c-0.616-0.56-1.592-1.286-2.915-1.992c-2.605-1.419-6.849-2.596-11.427-1.702c-4.573,0.909-8.053,3.608-9.924,5.909
					c-0.956,1.155-1.584,2.197-1.942,2.949C283.618,156.238,283.486,156.681,283.54,156.706z"/>
			</g>
			<g>
				<path style="fill:#455A64;" d="M285.131,233.261c0,0,1.385-0.431,3.277-2.162c1.867-1.692,4.091-4.968,4.617-9.571
					c0.236-2.273,0.059-4.879-1.012-7.4c-0.537-1.246-1.31-2.48-2.206-3.572c-0.862-1.099-1.792-2.223-2.09-3.544
					c-0.293-1.325,0.218-2.699,1.206-3.813c0.967-1.136,2.227-2.12,3.384-3.312c1.184-1.159,2.158-2.766,2.454-4.51
					c0.332-1.739,0.172-3.534-0.245-5.248c-0.876-3.458-2.722-6.341-3.872-9.307c-1.192-2.942-1.54-6.047-1.204-8.938
					c0.63-5.841,3.932-10.503,7.571-12.962c3.656-2.537,7.331-3.301,9.792-3.454c2.493-0.167,3.875,0.147,3.887,0.04
					c0.006-0.033-0.334-0.112-0.991-0.234c-0.658-0.104-1.641-0.213-2.914-0.182c-2.516,0.042-6.319,0.712-10.161,3.267
					c-3.828,2.477-7.363,7.319-8.068,13.421c-0.379,3.014-0.027,6.31,1.207,9.388c1.187,3.07,3.003,5.948,3.815,9.191
					c0.394,1.614,0.535,3.281,0.239,4.839c-0.278,1.575-1.077,2.918-2.192,4.034c-1.091,1.139-2.355,2.13-3.409,3.375
					c-1.077,1.201-1.764,2.968-1.368,4.6c0.394,1.618,1.433,2.786,2.296,3.879c0.903,1.081,1.602,2.182,2.133,3.359
					c1.041,2.356,1.253,4.833,1.069,7.016c-0.418,4.422-2.464,7.645-4.201,9.37C286.388,232.595,285.065,233.156,285.131,233.261z"
					/>
			</g>
			<g>
				<path style="fill:#455A64;" d="M278.403,146.617c0.199,0.144,1.154-2.756,4.819-5.43c1.825-1.271,4.251-2.586,7.156-3.068
					c2.905-0.491,6.268-0.491,9.57,0.312c0.662,0.159,1.293,0.378,1.875,0.601l0.565,0.217l0.176-0.565
					c1.92-6.148,5.966-10.6,9.254-13.04c3.313-2.5,5.789-3.322,5.706-3.51c-0.022-0.06-0.652,0.089-1.75,0.514
					c-1.096,0.424-2.642,1.181-4.4,2.384c-3.499,2.347-7.834,6.888-9.87,13.323l0.74-0.348c-0.635-0.247-1.32-0.484-2.023-0.653
					c-3.512-0.849-6.974-0.811-10.031-0.241c-3.097,0.581-5.589,2.033-7.442,3.448c-1.854,1.459-2.99,3.037-3.603,4.181
					C278.525,145.891,278.345,146.594,278.403,146.617z"/>
			</g>
			<g>
				<path style="fill:#FF9A6C;" d="M354.848,215.943c-1.163-1.709-3.3-2.723-5.478-2.598c-1.511,0.087-3.066,0.735-4.04,1.913
					c-0.974,1.177-1.253,2.905-0.482,4.114c0.869,1.361,2.806,1.762,4.482,1.375c1.677-0.387,3.153-1.403,4.559-2.419
					c0.388-0.281,0.786-0.575,1.04-0.975c0.254-0.399,0.331-0.934,0.06-1.289"/>
			</g>
			<g>
				<path style="fill:#263238;" d="M346.42,209.556c0.565-0.005,0.383,3.754,3.467,6.583c3.077,2.838,7.105,2.617,7.108,3.143
					c0.041,0.239-0.929,0.686-2.622,0.646c-1.662-0.026-4.057-0.68-5.944-2.411c-1.881-1.734-2.616-3.96-2.667-5.508
					C345.698,210.432,346.163,209.521,346.42,209.556z"/>
			</g>
		</g>
		<g>
			<g>
				<path style="fill:#FF725E;" d="M272.283,277.216l27.824-11.146c0,0,30.453,11.616,45.836,10.674
					c15.384-0.942,29.511-10.674,29.511-10.674l41.718,12.455l2.569,48.316l-3.16,82.461c0,0,7.063,27.894,6.201,37.615
					c-0.863,9.72-9.614,14.379-9.614,14.379l2.065,12.507H282.352l2.72-12.76c0,0-17.416-1.463-12.962-27.65
					c1.337-7.858,13.495-22.974,8.271-54.829C274.846,344.811,272.283,277.216,272.283,277.216z"/>
			</g>
			<g style="opacity:0.3;">
				<g>
					<path d="M403.986,375.385c-3.129-5.678-6.642-11.411-11.98-15.09c-5.597-3.858-12.626-5.038-19.423-5.179
						c-10.096-0.211-20.418,1.74-29.09,6.914c-11.982,7.15-19.67,19.597-26.453,31.791c-6.783,12.194-13.432,24.987-24.3,33.739
						l-21.822,16.03c22.168,3.66,46.001-5.586,59.901-23.239c11.887-15.097,17.039-35.703,32.463-47.163
						c2.975-2.21,6.277-4.011,9.823-5.088c5.243-1.593,11.275-1.452,15.819,1.611c5.764,3.885,7.811,11.282,9.285,18.074
						c4.337,19.986,7.83,41.269,20.921,56.981c0.884,1.061,2.445,2.153,3.477,1.236c0.521-0.462,0.595-1.236,0.625-1.932
						C424.272,420.012,415.608,396.474,403.986,375.385z"/>
				</g>
			</g>
			<g>
				<g>
					<path style="fill:#FF725E;" d="M416.693,278.469c0,0,18.919,0.728,29.075,44.545c4.522,19.509,25.019,86.42,15.012,105.981
						c-9.201,17.984-18.196,19.806-30.023,18.773c-11.827-1.033-26.267-43.337-26.267-43.337v-10.463l-10.201-23.82l15.139-35.746"
						/>
				</g>
				<g>
					<g>
						<path style="fill:#263238;" d="M409.429,334.403c0,0-0.074,0.215-0.24,0.628c-0.174,0.425-0.424,1.034-0.75,1.83
							c-0.676,1.621-1.665,3.994-2.943,7.063c-2.59,6.161-6.349,15.103-11.051,26.29l0-0.131
							c3.032,7.049,6.471,15.046,10.237,23.804l0.017,0.039v0.043c0.004,3.265,0.008,6.814,0.012,10.462l-0.012-0.07
							c2.133,6.047,4.621,12.322,7.523,18.705c1.453,3.191,3.03,6.402,4.784,9.586c1.752,3.182,3.695,6.343,6.023,9.274
							c1.184,1.443,2.474,2.832,3.983,3.949c0.366,0.297,0.766,0.537,1.177,0.76c0.394,0.261,0.837,0.403,1.268,0.576
							c0.429,0.185,0.897,0.201,1.347,0.308l1.441,0.103c1.924,0.126,3.869,0.178,5.809,0.01c0.974-0.047,1.933-0.223,2.899-0.371
							c0.946-0.233,1.916-0.409,2.83-0.769c3.756-1.211,6.983-3.76,9.658-6.748c2.681-3.017,4.835-6.531,6.74-10.183
							c1.349-2.482,2.059-5.215,2.487-7.972c0.453-2.757,0.521-5.549,0.569-8.306c-0.015-5.527-0.507-10.968-1.18-16.283
							c-1.376-10.633-3.456-20.782-5.614-30.397c-2.172-9.616-4.493-18.694-6.698-27.181c-1.097-4.246-2.157-8.346-3.176-12.288
							c-0.951-3.965-1.929-7.739-2.861-11.345c-2.089-7.147-4.495-13.464-7.213-18.717c-2.689-5.271-5.808-9.377-8.764-12.293
							c-2.964-2.926-5.804-4.589-7.827-5.408c-0.508-0.201-0.969-0.345-1.36-0.488c-0.398-0.104-0.735-0.192-1.011-0.264
							c-0.551-0.106-0.837-0.145-0.837-0.145s0.072-0.003,0.215,0.005c0.154,0.021,0.362,0.05,0.632,0.087
							c0.279,0.066,0.62,0.146,1.023,0.241c0.395,0.135,0.862,0.272,1.376,0.466c2.048,0.792,4.926,2.438,7.93,5.36
							c2.995,2.911,6.155,7.024,8.88,12.303c2.754,5.263,5.192,11.591,7.31,18.752c0.945,3.611,1.938,7.398,2.897,11.348
							c1.028,3.939,2.097,8.035,3.204,12.278c2.224,8.484,4.562,17.563,6.748,27.184c2.172,9.621,4.265,19.779,5.652,30.438
							c0.677,5.329,1.175,10.787,1.192,16.349c-0.047,2.777-0.114,5.588-0.573,8.384c-0.429,2.785-1.161,5.602-2.539,8.135
							c-1.918,3.676-4.089,7.221-6.813,10.285c-2.715,3.034-6.024,5.65-9.88,6.891c-0.939,0.368-1.931,0.549-2.899,0.786
							c-0.986,0.152-1.967,0.33-2.957,0.378c-1.974,0.17-3.942,0.115-5.882-0.013l-1.452-0.105c-0.487-0.11-1.007-0.138-1.464-0.334
							c-0.462-0.184-0.938-0.341-1.349-0.613c-0.433-0.236-0.852-0.488-1.23-0.795c-1.564-1.16-2.874-2.578-4.074-4.042
							c-2.356-2.971-4.305-6.153-6.062-9.352c-1.758-3.201-3.335-6.424-4.787-9.625c-2.901-6.405-5.379-12.688-7.507-18.76
							l-0.012-0.034v-0.037c0.004-3.649,0.008-7.197,0.012-10.462l0.017,0.081c-3.74-8.769-7.155-16.776-10.165-23.835l-0.028-0.066
							l0.028-0.065c4.763-11.162,8.57-20.083,11.193-26.23c1.314-3.054,2.33-5.415,3.024-7.028c0.345-0.789,0.609-1.392,0.793-1.813
							C409.326,334.605,409.429,334.403,409.429,334.403z"/>
					</g>
				</g>
			</g>
			<g>
				<g>
					<path style="fill:#263238;" d="M416.693,303.497c0.035,0.008-0.053,0.545-0.242,1.507c-0.204,1.055-0.469,2.425-0.787,4.073
						c-0.632,3.441-1.419,8.222-1.664,13.55c-0.238,5.331,0.209,10.157,0.762,13.607c0.279,1.725,0.537,3.119,0.746,4.075
						c0.198,0.959,0.29,1.495,0.256,1.504c-0.035,0.009-0.194-0.51-0.453-1.457c-0.271-0.945-0.584-2.333-0.912-4.06
						c-0.65-3.453-1.16-8.32-0.919-13.692c0.247-5.369,1.097-10.167,1.823-13.599c0.369-1.716,0.697-3.099,0.951-4.047
						C416.503,304.009,416.658,303.489,416.693,303.497z"/>
				</g>
			</g>
			<g>
				<path style="fill:#FF725E;" d="M280.573,278.607c-3.546-2.36-4.51-7.848-2.887-11.991c1.623-4.143,5.256-7.024,9.116-8.713
					c6.398-2.799,13.566-2.811,20.404-1.794c13.719,2.039,26.871,8.094,37.92,17.113c10.854-9.122,22.835-16.678,35.525-22.403
					c2.923-1.319,6.199-2.552,9.186-1.413c2.538,0.968,4.335,3.524,5.216,6.272c0.882,2.747,0.982,5.705,1.075,8.611
					c0.133,4.197,0.049,8.979-2.85,11.778c-1.869,1.805-4.486,2.321-6.96,2.764c-17.78,3.19-36.01,6.378-53.712,2.715
					c-8.696-1.799-17.057-5.221-25.778-6.872C298.11,273.022,289.447,277.144,280.573,278.607"/>
			</g>
			<g>
				<g>
					<path style="fill:#263238;" d="M439.266,314.636c0.031,0.088-1.596,0.665-4.098,1.87c-2.501,1.2-5.844,3.112-9.169,5.733
						c-3.318,2.631-5.95,5.444-7.694,7.601c-1.749,2.156-2.686,3.607-2.764,3.556c-0.03-0.019,0.18-0.396,0.589-1.063
						c0.401-0.672,1.042-1.606,1.887-2.721c1.683-2.233,4.304-5.12,7.66-7.781c3.362-2.651,6.776-4.535,9.337-5.658
						c1.28-0.565,2.337-0.973,3.083-1.208C438.839,314.72,439.255,314.602,439.266,314.636z"/>
				</g>
			</g>
			<g>
				<g>
					<g>
						<path style="fill:#263238;" d="M346.248,278.591c-0.014-0.011,0.11-0.199,0.359-0.548c0.253-0.346,0.635-0.85,1.164-1.471
							c1.061-1.225,2.674-3.009,5.186-4.552c0.629-0.378,1.311-0.744,2.058-1.044c0.367-0.156,0.761-0.31,1.209-0.37
							c0.44-0.065,0.977,0.039,1.339,0.395c0.721,0.7,0.738,1.899,0.201,2.722c-0.518,0.848-1.331,1.401-2.104,1.971
							c-3.168,2.235-7.367,3.774-11.876,3.762c-4.51-0.001-8.706-1.557-11.865-3.805c-0.385-0.294-0.794-0.539-1.141-0.94
							c-0.167-0.198-0.317-0.448-0.351-0.742c-0.036-0.289,0.053-0.594,0.243-0.815c0.393-0.436,0.917-0.517,1.374-0.565
							c0.476-0.046,0.925,0.047,1.349,0.111c1.71,0.316,3.22,0.874,4.571,1.423c2.695,1.125,4.755,2.281,6.163,3.096
							c0.7,0.415,1.236,0.75,1.593,0.986C346.076,278.443,346.258,278.575,346.248,278.591c-0.009,0.015-0.21-0.087-0.584-0.296
							c-0.422-0.232-0.965-0.53-1.638-0.9c-1.432-0.758-3.513-1.86-6.201-2.931c-1.345-0.522-2.848-1.052-4.505-1.339
							c-0.419-0.059-0.833-0.139-1.242-0.093c-0.401,0.036-0.84,0.149-1.059,0.415c-0.223,0.26-0.167,0.656,0.115,0.959
							c0.268,0.313,0.681,0.569,1.06,0.852c3.098,2.174,7.197,3.675,11.589,3.676c4.391,0.011,8.492-1.474,11.6-3.635
							c0.767-0.553,1.545-1.092,1.988-1.815c0.467-0.69,0.417-1.65-0.107-2.172c-0.536-0.531-1.404-0.259-2.1,0.035
							c-0.729,0.281-1.399,0.628-2.02,0.988c-2.481,1.468-4.123,3.193-5.222,4.369c-0.548,0.596-0.954,1.078-1.233,1.402
							C346.414,278.435,346.263,278.601,346.248,278.591z"/>
					</g>
				</g>
				<g>
					<g>
						<path style="fill:#263238;" d="M341.912,315.818c-0.036,0.001-0.077-0.525-0.12-1.476c-0.047-0.951-0.072-2.33-0.064-4.033
							c0.012-3.406,0.221-8.116,0.819-13.282c0.605-5.168,1.485-9.8,2.256-13.117c0.384-1.659,0.725-2.995,0.99-3.91
							c0.26-0.916,0.421-1.418,0.456-1.409s-0.059,0.528-0.259,1.458c-0.215,1.025-0.493,2.349-0.826,3.939
							c-0.677,3.329-1.496,7.952-2.098,13.1c-0.596,5.147-0.862,9.834-0.969,13.229c-0.041,1.625-0.075,2.977-0.101,4.024
							C341.975,315.291,341.948,315.818,341.912,315.818z"/>
					</g>
				</g>
				<g>
					<g>
						<path style="fill:#263238;" d="M356.665,299.822c-0.069,0.027-0.545-1.027-1.288-2.739c-0.809-1.86-1.806-4.151-2.908-6.684
							c-1.127-2.523-2.147-4.805-2.974-6.657c-0.763-1.704-1.22-2.766-1.154-2.798c0.063-0.031,0.637,0.974,1.486,2.64
							c0.849,1.665,1.967,3.995,3.118,6.605c1.15,2.61,2.116,5.006,2.773,6.756C356.375,298.695,356.73,299.796,356.665,299.822z"/>
					</g>
				</g>
			</g>
			<g>
				<g>
					<path style="fill:#263238;" d="M338.845,280.937c-0.008,0.016-0.207-0.055-0.578-0.206c-0.42-0.177-0.954-0.403-1.613-0.681
						c-0.694-0.308-1.548-0.674-2.56-1.049c-1.009-0.382-2.139-0.862-3.432-1.277c-1.281-0.447-2.686-0.93-4.223-1.359
						c-1.521-0.483-3.18-0.873-4.918-1.313c-3.495-0.796-7.379-1.493-11.495-1.921c-4.12-0.396-8.067-0.483-11.651-0.395
						c-1.791,0.087-3.495,0.141-5.081,0.313c-1.591,0.116-3.064,0.311-4.409,0.495c-1.349,0.151-2.553,0.398-3.617,0.572
						c-1.066,0.167-1.975,0.357-2.717,0.522c-0.7,0.142-1.268,0.257-1.715,0.348c-0.394,0.074-0.603,0.104-0.607,0.087
						c-0.004-0.017,0.196-0.082,0.582-0.189c0.442-0.116,1.004-0.263,1.696-0.444c0.736-0.195,1.642-0.415,2.707-0.61
						c1.063-0.203,2.266-0.476,3.618-0.651c1.347-0.208,2.824-0.426,4.422-0.561c1.592-0.192,3.305-0.262,5.105-0.363
						c3.603-0.115,7.574-0.042,11.719,0.356c4.14,0.431,8.046,1.146,11.555,1.972c1.744,0.455,3.408,0.863,4.931,1.367
						c1.539,0.449,2.944,0.955,4.223,1.426c1.29,0.439,2.416,0.945,3.418,1.354c1.005,0.402,1.849,0.797,2.532,1.134
						c0.643,0.315,1.164,0.57,1.575,0.771C338.669,280.818,338.853,280.921,338.845,280.937z"/>
				</g>
			</g>
			<g>
				<g>
					<path style="fill:#263238;" d="M392.837,270.069c0.011,0.034-0.574,0.257-1.643,0.632c-1.068,0.378-2.625,0.887-4.56,1.485
						c-3.869,1.197-9.266,2.692-15.3,4.034c-6.038,1.338-11.561,2.267-15.573,2.819c-2.006,0.277-3.633,0.475-4.76,0.584
						c-1.127,0.113-1.751,0.158-1.756,0.123c-0.004-0.036,0.612-0.149,1.73-0.324c1.202-0.19,2.798-0.442,4.731-0.747
						c3.992-0.645,9.491-1.629,15.515-2.964c6.02-1.339,11.419-2.774,15.309-3.879c1.881-0.541,3.434-0.988,4.603-1.325
						C392.219,270.193,392.826,270.035,392.837,270.069z"/>
				</g>
			</g>
			<g>
				<g>
					<path style="fill:#FFBF9D;" d="M422.894,350.876c0,0-15.012-19.913-19.678-22.129c-4.666-2.215-36.922-16.619-39.559-17.836
						c-2.637-1.217-6.396,0.695-5.632,2.173c0.764,1.479,2.995,4.927,2.995,4.927l-5.303-2.434l-4.231,13.17
						c0,0,15.551,19.745,20.052,25.222c4.501,5.477,22.753,9.711,22.753,9.711l3.569,7.158
						C415.764,370.105,422.894,350.876,422.894,350.876z"/>
				</g>
				<g>
					<g>
						<g>
							<path style="fill:#FFBF9D;" d="M341.882,342.93c0,0,4.391-17.915,6.42-21.364c2.029-3.449,10.143-12.983,11.158-16.432
								c1.014-3.449,0.753-6.086,2.202-6.492s5.101,3.043,5.101,6.695c0,3.652-5.101,14.606-5.101,14.606s17.475-6.492,22.75-8.318
								s20.287-2.434,20.287-2.434s2.434,3.652-0.812,6.086l8.115-0.811c0,0,0.812,4.463-1.826,5.68l4.463-1.217
								c0,0,3.043,4.869-3.246,7.709l-1.826,0.812c0,0,2.232,3.449-0.609,5.883c-2.84,2.434-14.809,8.115-16.838,10.346
								c-2.029,2.232-14.201,13.795-19.881,15.621c-5.68,1.826-14.157,5.907-14.157,5.907L341.882,342.93z"/>
						</g>
						<g>
							<g>
								<path style="fill:#FF9A6C;" d="M341.882,342.93c0,0,0.109,0.127,0.301,0.379c0.2,0.267,0.48,0.64,0.844,1.126
									c0.745,1.008,1.827,2.471,3.226,4.365c2.801,3.82,6.865,9.362,11.961,16.311l-0.202-0.051
									c3.78-1.792,7.963-3.71,12.638-5.421c1.179-0.435,2.383-0.752,3.483-1.406c1.126-0.594,2.213-1.317,3.302-2.069
									c2.164-1.53,4.298-3.254,6.439-5.09c2.137-1.841,4.29-3.789,6.417-5.867c0.53-0.519,1.064-1.046,1.571-1.591
									c0.546-0.562,1.175-1.035,1.815-1.452c1.28-0.854,2.619-1.628,3.975-2.406c2.713-1.549,5.53-3.049,8.312-4.71
									c0.695-0.415,1.384-0.847,2.048-1.31c0.658-0.468,1.283-0.969,1.663-1.648c0.807-1.351,0.487-3.149-0.319-4.504
									l-0.147-0.248l0.257-0.119c1.653-0.769,3.522-1.393,4.68-2.889c0.583-0.717,0.935-1.613,0.968-2.55
									c0.027-0.93-0.238-1.904-0.692-2.714l0.286,0.112c-1.4,0.382-2.927,0.799-4.463,1.218l-2.404,0.656l2.227-1.141
									c0.408-0.209,0.772-0.507,1.05-0.9c0.266-0.402,0.447-0.872,0.566-1.368c0.228-0.994,0.217-2.094,0.063-3.131l0.281,0.212
									c-2.577,0.258-5.335,0.534-8.114,0.812l-0.814,0.081l0.632-0.549l0.031-0.027c0.855-0.655,1.477-1.6,1.536-2.665
									c0.076-1.05-0.273-2.146-0.816-3.041l0.227,0.116c-3.965,0.183-7.883,0.463-11.719,0.88
									c-1.917,0.212-3.816,0.468-5.672,0.827c-0.929,0.176-1.841,0.399-2.723,0.678c-0.886,0.321-1.768,0.641-2.645,0.959
									c-7.021,2.561-13.781,5.027-20.204,7.37l-0.536,0.196l0.238-0.518c1.137-2.472,2.185-4.935,3.119-7.375
									c0.468-1.22,0.894-2.44,1.268-3.657c0.351-1.213,0.727-2.45,0.699-3.647c-0.036-1.207-0.468-2.371-1.089-3.384
									c-0.622-1.009-1.43-1.921-2.391-2.538c-0.47-0.284-1.041-0.554-1.467-0.346c-0.452,0.19-0.681,0.736-0.832,1.266
									c-0.294,1.087-0.431,2.234-0.68,3.334c-0.115,0.553-0.258,1.097-0.41,1.634c-0.089,0.268-0.198,0.533-0.297,0.798
									l-0.371,0.744c-0.53,0.963-1.1,1.876-1.698,2.745c-1.184,1.746-2.4,3.375-3.572,4.939c-1.172,1.561-2.298,3.061-3.376,4.497
									c-1.057,1.45-2.09,2.818-2.637,4.344c-1.172,3.025-1.966,5.839-2.686,8.273c-0.704,2.441-1.273,4.533-1.732,6.233
									c-0.451,1.688-0.798,2.99-1.038,3.891c-0.116,0.429-0.205,0.759-0.27,1C341.923,342.818,341.889,342.926,341.882,342.93
									c-0.007,0.004,0.015-0.118,0.065-0.345c0.056-0.243,0.133-0.577,0.233-1.01c0.224-0.905,0.547-2.214,0.967-3.911
									c0.436-1.706,0.983-3.805,1.666-6.255c0.7-2.445,1.471-5.261,2.634-8.319c0.552-1.564,1.603-2.976,2.647-4.424
									c1.071-1.442,2.19-2.948,3.355-4.517c1.163-1.567,2.37-3.199,3.539-4.94c1.156-1.758,2.377-3.551,2.697-5.797
									c0.243-1.09,0.37-2.216,0.675-3.365c0.16-0.546,0.396-1.229,1.056-1.53c0.315-0.162,0.704-0.118,1.002-0.032
									c0.309,0.095,0.59,0.237,0.853,0.4c1.045,0.668,1.877,1.611,2.536,2.669c0.654,1.061,1.119,2.288,1.163,3.595
									c0.029,1.319-0.357,2.553-0.708,3.79c-0.375,1.233-0.802,2.463-1.27,3.69c-0.934,2.456-1.978,4.924-3.117,7.413
									l-0.298-0.323c6.423-2.354,13.182-4.83,20.203-7.403c0.879-0.32,1.762-0.641,2.649-0.963
									c0.916-0.291,1.847-0.518,2.787-0.697c1.88-0.365,3.788-0.623,5.714-0.838c3.853-0.422,7.774-0.703,11.755-0.888
									l0.153-0.007l0.074,0.123c0.61,1.011,0.979,2.161,0.902,3.37c-0.064,1.218-0.798,2.329-1.739,3.039l-0.034,0.029
									l-0.182-0.467c2.78-0.278,5.538-0.553,8.115-0.811l0.247-0.025l0.035,0.237c0.166,1.125,0.178,2.247-0.069,3.342
									c-0.131,0.542-0.331,1.073-0.644,1.542c-0.325,0.464-0.768,0.831-1.26,1.077l-0.176-0.484
									c1.536-0.418,3.063-0.834,4.463-1.216l0.194-0.053l0.092,0.165c0.521,0.933,0.791,1.954,0.768,3.003
									c-0.034,1.046-0.437,2.064-1.081,2.851c-0.303,0.415-0.699,0.728-1.071,1.059c-0.416,0.267-0.801,0.586-1.244,0.785
									c-0.861,0.474-1.72,0.801-2.558,1.188l0.109-0.367c0.459,0.771,0.741,1.597,0.841,2.474c0.105,0.87-0.072,1.789-0.514,2.552
									c-0.437,0.777-1.138,1.329-1.81,1.804c-0.683,0.475-1.379,0.909-2.08,1.327c-2.803,1.668-5.62,3.162-8.33,4.703
									c-1.352,0.772-2.689,1.542-3.95,2.38c-0.639,0.414-1.228,0.86-1.736,1.377c-0.522,0.559-1.056,1.084-1.591,1.605
									c-2.141,2.082-4.304,4.029-6.453,5.871c-2.154,1.836-4.301,3.561-6.486,5.096c-1.101,0.755-2.199,1.482-3.352,2.084
									c-1.126,0.663-2.395,0.999-3.54,1.416c-4.656,1.683-8.849,3.583-12.626,5.35l-0.124,0.058l-0.079-0.109
									c-5.055-7.008-9.086-12.596-11.865-16.449c-1.365-1.908-2.42-3.382-3.147-4.398c-0.346-0.49-0.611-0.867-0.801-1.137
									C341.961,343.062,341.882,342.93,341.882,342.93z"/>
							</g>
						</g>
					</g>
					<g>
						<g>
							<path style="fill:#FF9A6C;" d="M403.887,315.277c0.001,0.036-0.414,0.093-1.165,0.166c-0.751,0.07-1.837,0.184-3.172,0.357
								c-2.672,0.336-6.345,0.966-10.305,2.052c-1.978,0.552-3.834,1.168-5.503,1.783c-1.655,0.646-3.139,1.255-4.343,1.854
								c-2.426,1.164-3.837,2.062-3.887,1.984c-0.019-0.03,0.318-0.277,0.948-0.699c0.311-0.217,0.705-0.462,1.173-0.728
								c0.464-0.273,0.994-0.584,1.601-0.886c1.194-0.646,2.675-1.296,4.336-1.972c1.674-0.645,3.543-1.28,5.536-1.837
								c3.993-1.095,7.706-1.672,10.403-1.916c1.348-0.128,2.443-0.186,3.201-0.194C403.467,315.23,403.885,315.241,403.887,315.277
								z"/>
						</g>
					</g>
					<g>
						<g>
							<path style="fill:#FF9A6C;" d="M384.137,329.218c-0.021-0.029,0.272-0.268,0.821-0.676c0.543-0.416,1.37-0.962,2.416-1.596
								c2.094-1.265,5.156-2.756,8.715-3.905c3.56-1.147,6.885-1.798,9.294-2.179c1.206-0.19,2.185-0.319,2.865-0.387
								c0.679-0.07,1.056-0.092,1.062-0.057c0.005,0.036-0.363,0.125-1.031,0.257c-0.781,0.152-1.725,0.335-2.83,0.549
								c-2.385,0.472-5.674,1.176-9.198,2.312c-3.523,1.139-6.569,2.557-8.692,3.729
								C385.433,328.437,384.189,329.292,384.137,329.218z"/>
						</g>
					</g>
					<g>
						<g>
							<path style="fill:#FF9A6C;" d="M408.679,326.74c0.013,0.085-1.329,0.316-3.453,0.859c-2.123,0.54-5.016,1.45-8.059,2.827
								c-3.04,1.385-5.63,2.966-7.433,4.209c-1.806,1.241-2.863,2.1-2.918,2.034c-0.023-0.027,0.218-0.269,0.676-0.684
								c0.454-0.419,1.145-0.986,2.029-1.65c1.763-1.33,4.355-2.982,7.432-4.383c3.079-1.394,6.028-2.259,8.19-2.711
								c1.081-0.228,1.963-0.376,2.578-0.442C408.333,326.727,408.674,326.704,408.679,326.74z"/>
						</g>
					</g>
				</g>
			</g>
			<g>
				<g>
					<path style="fill:#FF725E;" d="M272.755,277.951c-1.06,0.353-3.931,1.039-13.069,9.184
						c-7.673,6.839-12.588,19.742-15.64,31.457c-2.959,11.359-4.458,23.042-4.711,34.777c-0.343,15.935-0.974,45.526-1.006,49.126
						c-0.065,7.335-0.737,35.088,32.584,38.711c23.546,2.56,62.958-34.079,64.724-40.083c1.766-6.005,3.659-14.941,3.659-14.941
						l21.409-19.223l-19.78-27.197l-55.805,33.721l6.886-43.609"/>
				</g>
				<g>
					<g>
						<path style="fill:#263238;" d="M292.006,329.875c0,0-0.026,0.254-0.097,0.749c-0.075,0.505-0.184,1.239-0.327,2.203
							c-0.299,1.951-0.738,4.821-1.309,8.548c-1.164,7.476-2.861,18.378-5.002,32.133l-0.231-0.155
							c14.933-9.045,33.917-20.544,55.769-33.78l0.174-0.105l0.12,0.165c6.21,8.529,12.857,17.657,19.795,27.186l0.128,0.176
							l-0.162,0.146c-6.805,6.115-14.005,12.585-21.401,19.23l0.078-0.135c-0.96,4.434-1.99,8.929-3.23,13.449
							c-0.165,0.567-0.296,1.124-0.507,1.699c-0.221,0.599-0.555,1.094-0.886,1.594c-0.668,0.994-1.439,1.899-2.212,2.806
							c-1.563,1.798-3.239,3.508-4.962,5.188c-6.928,6.679-14.637,12.875-22.998,18.368c-6.643,4.305-13.582,8.114-20.978,10.458
							c-3.69,1.142-7.524,1.931-11.368,1.752c-3.822-0.245-7.55-0.951-11.139-2.058c-3.572-1.131-7.004-2.704-9.994-4.88
							c-1.504-1.074-2.88-2.301-4.155-3.613c-1.236-1.346-2.389-2.763-3.358-4.294c-3.946-6.127-5.408-13.323-5.637-20.163
							c-0.11-3.445,0.054-6.822,0.1-10.164c0.07-3.34,0.14-6.635,0.208-9.883c0.138-6.495,0.271-12.801,0.4-18.898
							c0.149-6.098,0.212-11.982,0.419-17.647c0.246-5.663,0.777-11.083,1.54-16.218c1.551-10.268,3.968-19.396,6.868-27.118
							c2.895-7.714,6.498-14.009,10.557-18.202c2.076-2.046,4.084-3.657,5.811-5.077c1.742-1.399,3.269-2.518,4.556-3.345
							c1.285-0.828,2.324-1.37,3.053-1.661c0.73-0.289,1.123-0.377,1.123-0.377s-0.093,0.039-0.279,0.105
							c-0.186,0.066-0.465,0.165-0.823,0.32c-0.718,0.306-1.744,0.859-3.016,1.7c-1.273,0.838-2.787,1.968-4.516,3.378
							c-1.709,1.426-3.718,3.059-5.763,5.097c-4.008,4.185-7.569,10.462-10.43,18.163c-2.865,7.709-5.253,16.825-6.776,27.07
							c-0.75,5.124-1.269,10.533-1.503,16.181c-0.195,5.649-0.25,11.544-0.389,17.638c-0.121,6.096-0.245,12.401-0.374,18.896
							c-0.065,3.247-0.13,6.542-0.197,9.882c-0.043,3.337-0.202,6.732-0.09,10.142c0.233,6.786,1.691,13.891,5.575,19.911
							c0.953,1.505,2.088,2.895,3.303,4.218c1.253,1.288,2.606,2.494,4.086,3.548c2.941,2.138,6.323,3.687,9.852,4.803
							c3.536,1.091,7.261,1.792,11.007,2.03c3.758,0.175,7.542-0.601,11.193-1.732c7.322-2.321,14.231-6.111,20.847-10.399
							c8.328-5.471,16.021-11.652,22.922-18.302c1.715-1.672,3.384-3.374,4.933-5.155c0.764-0.896,1.53-1.795,2.176-2.757
							c0.318-0.477,0.643-0.972,0.827-1.476c0.195-0.524,0.336-1.112,0.497-1.666c1.237-4.501,2.269-8.995,3.23-13.417l0.018-0.081
							l0.061-0.054c7.401-6.64,14.606-13.104,21.416-19.214l-0.034,0.321c-6.927-9.536-13.564-18.673-19.764-27.208l0.294,0.059
							c-21.88,13.19-40.887,24.648-55.84,33.662l-0.283,0.171l0.052-0.326c2.201-13.745,3.946-24.641,5.143-32.111
							c0.605-3.722,1.072-6.588,1.388-8.536c0.161-0.961,0.284-1.693,0.368-2.196C291.952,330.124,292.006,329.875,292.006,329.875z
							"/>
					</g>
				</g>
			</g>
			<g>
				<g>
					<path style="fill:#263238;" d="M254.408,298.609c0.007-0.017,0.173,0.038,0.482,0.159c0.363,0.148,0.806,0.33,1.344,0.549
						c0.585,0.237,1.293,0.544,2.09,0.953c0.8,0.402,1.731,0.826,2.704,1.399c0.988,0.546,2.065,1.154,3.174,1.885
						c1.138,0.687,2.283,1.525,3.503,2.386c2.392,1.787,4.912,3.902,7.352,6.339c2.42,2.459,4.517,4.995,6.287,7.4
						c0.853,1.226,1.683,2.378,2.361,3.52c0.723,1.114,1.323,2.196,1.862,3.187c0.566,0.977,0.983,1.91,1.379,2.714
						c0.403,0.8,0.705,1.51,0.938,2.097c0.216,0.539,0.394,0.983,0.54,1.347c0.118,0.31,0.172,0.476,0.155,0.483
						c-0.017,0.007-0.103-0.146-0.252-0.442c-0.169-0.352-0.377-0.783-0.628-1.305c-0.26-0.572-0.588-1.266-1.014-2.051
						c-0.419-0.787-0.856-1.704-1.44-2.664c-0.556-0.974-1.171-2.038-1.904-3.135c-0.689-1.125-1.527-2.259-2.384-3.468
						c-1.778-2.371-3.869-4.877-6.27-7.316c-2.421-2.417-4.911-4.526-7.269-6.321c-1.203-0.866-2.331-1.711-3.45-2.409
						c-1.091-0.742-2.15-1.364-3.121-1.927c-0.955-0.591-1.869-1.034-2.653-1.459c-0.781-0.432-1.474-0.764-2.044-1.029
						c-0.52-0.255-0.949-0.465-1.301-0.637C254.553,298.713,254.401,298.626,254.408,298.609z"/>
				</g>
			</g>
			<g>
				<g>
					<path style="fill:#263238;" d="M314.201,355.198c0.04-0.009,0.191,0.528,0.484,1.488c0.291,0.961,0.758,2.338,1.453,3.99
						c1.367,3.313,3.838,7.65,7.267,11.92c3.428,4.274,6.991,7.754,9.558,10.271c1.238,1.207,2.266,2.208,3.054,2.975
						c0.717,0.708,1.102,1.111,1.078,1.137c-0.024,0.026-0.456-0.327-1.216-0.989c-0.759-0.662-1.847-1.633-3.169-2.857
						c-2.635-2.452-6.255-5.905-9.711-10.214c-3.458-4.304-5.909-8.726-7.201-12.105c-0.657-1.686-1.075-3.092-1.307-4.075
						c-0.129-0.488-0.19-0.877-0.243-1.138C314.199,355.341,314.183,355.202,314.201,355.198z"/>
				</g>
			</g>
			<g>
				<g>
					<path style="fill:#263238;" d="M460.337,403.503c-0.06,0.003-0.072-1.035-0.312-2.879c-0.226-1.839-0.768-4.512-2.19-7.515
						c-1.376-3.024-3.71-6.258-6.594-9.582c-1.457-1.659-2.984-3.399-4.568-5.202c-0.784-0.91-1.602-1.821-2.366-2.816
						c-0.769-0.986-1.475-2.035-2.182-3.1c-2.781-4.291-5.11-8.553-7.399-12.321c-2.274-3.774-4.463-7.097-6.651-9.597
						c-2.163-2.511-4.422-4.117-6.228-4.546c-1.805-0.444-2.844,0.005-2.846-0.095c-0.004-0.017,0.245-0.08,0.732-0.183
						c0.487-0.082,1.233-0.115,2.162,0.081c1.882,0.381,4.235,1.99,6.456,4.499c2.25,2.499,4.484,5.822,6.786,9.592
						c2.317,3.764,4.661,8.022,7.424,12.285c0.701,1.057,1.401,2.098,2.157,3.069c0.745,0.975,1.559,1.886,2.34,2.797
						c1.577,1.808,3.119,3.539,4.548,5.226c2.875,3.353,5.211,6.652,6.563,9.739c1.399,3.066,1.891,5.785,2.057,7.644
						c0.133,0.929,0.095,1.661,0.122,2.152C460.358,403.245,460.355,403.503,460.337,403.503z"/>
				</g>
			</g>
			<g>
				<g>
					<path style="fill:#263238;" d="M423.061,348.574c0.03,0.007-0.056,0.526-0.295,1.446c-0.237,0.92-0.662,2.234-1.342,3.796
						c-1.339,3.115-3.91,7.216-7.918,10.583c-4.008,3.37-8.491,5.197-11.789,5.98c-1.656,0.402-3.023,0.594-3.97,0.669
						c-0.947,0.077-1.473,0.072-1.475,0.042c-0.003-0.041,0.518-0.105,1.451-0.243c0.933-0.136,2.278-0.382,3.901-0.824
						c3.236-0.865,7.613-2.714,11.547-6.022c3.934-3.305,6.51-7.298,7.918-10.337c0.715-1.523,1.188-2.805,1.483-3.701
						C422.869,349.066,423.021,348.564,423.061,348.574z"/>
				</g>
			</g>
			<g>
				<g>
					<path style="fill:#263238;" d="M439.84,373.484c0.018,0.004-0.002,0.159-0.056,0.451c-0.062,0.29-0.124,0.727-0.28,1.27
						c-0.271,1.097-0.783,2.661-1.645,4.495c-1.685,3.651-5.115,8.394-10.454,11.639c-5.346,3.239-11.137,4.09-15.154,3.899
						c-2.025-0.082-3.649-0.351-4.747-0.617c-0.554-0.113-0.97-0.26-1.256-0.339c-0.284-0.087-0.431-0.141-0.426-0.158
						c0.011-0.043,0.619,0.099,1.722,0.298c1.102,0.203,2.716,0.413,4.716,0.448c3.968,0.095,9.637-0.802,14.875-3.976
						c5.232-3.18,8.645-7.792,10.394-11.356c0.893-1.79,1.452-3.318,1.781-4.389C439.642,374.078,439.797,373.474,439.84,373.484z"
						/>
				</g>
			</g>
			<g>
				<g>
					<path style="fill:#263238;" d="M411.769,462.147c0,0.144-27.756,0.26-61.987,0.26c-34.243,0-61.993-0.117-61.993-0.26
						s27.75-0.26,61.993-0.26C384.013,461.887,411.769,462.003,411.769,462.147z"/>
				</g>
			</g>
			<g>
				<path style="fill:#263238;" d="M259.237,281.488c2.977,5.088,8.93,8.279,14.815,7.94c5.885-0.338,11.433-4.19,13.807-9.586
					c5.94,3.751,14.203,3.374,19.776-0.904c5.573-4.277,8.074-12.163,5.986-18.87c5.46-0.125,9.019-5.884,10.265-11.201
					c2.84-12.126-1.269-25.634-10.382-34.124"/>
			</g>
			<g>
				<g>
					<path style="fill:#263238;" d="M269.595,389.138c-0.034-0.012,0.047-0.32,0.224-0.871c0.168-0.553,0.482-1.331,0.927-2.265
						c0.884-1.869,2.438-4.32,4.67-6.577c2.24-2.249,4.681-3.821,6.543-4.719c0.931-0.452,1.706-0.771,2.258-0.944
						c0.549-0.181,0.857-0.265,0.869-0.231c0.032,0.087-1.164,0.526-2.957,1.501c-1.793,0.969-4.147,2.555-6.343,4.759
						c-2.187,2.212-3.756,4.577-4.712,6.377C270.113,387.969,269.683,389.169,269.595,389.138z"/>
				</g>
			</g>
		</g>
	</g>
</g>
</svg>
