<?xml version="1.0" encoding="utf-8"?>
<!-- Generator: Adobe Illustrator 27.5.0, SVG Export Plug-In . SVG Version: 6.00 Build 0)  -->
<svg version="1.1" xmlns="http://www.w3.org/2000/svg" xmlns:xlink="http://www.w3.org/1999/xlink" x="0px" y="0px"
	 viewBox="0 0 500 500" style="enable-background:new 0 0 500 500;" xml:space="preserve">
<g id="BACKGROUND">
	<g id="background">
		<rect style="fill:#FFFFFF;" width="500" height="500"/>
	</g>
</g>
<g id="OBJECTS">
	<g>
		
			<ellipse transform="matrix(0.7071 -0.7071 0.7071 0.7071 -77.9992 238.6585)" style="fill:#D3EBED;" cx="249.087" cy="213.483" rx="180.198" ry="180.198"/>
	</g>
	<g>
		<g>
			<g>
				<path style="fill:#019FAC;" d="M328.986,159.229l-6.843,4.84c-1.698,1.201-4.07,0.795-5.271-0.904l-0.236-0.334
					c-1.201-1.698-0.795-4.07,0.904-5.271l6.843-4.84c1.698-1.201,4.07-0.795,5.271,0.903l0.236,0.334
					C331.091,155.656,330.684,158.028,328.986,159.229z"/>
			</g>
			<g>
				<path style="fill:#92CACF;" d="M341.126,161.357l-5.108,3.613c-1.777,1.257-4.26,0.832-5.517-0.946l-10.136-14.329
					c-1.257-1.777-0.831-4.26,0.946-5.517l5.108-3.613c1.777-1.257,4.26-0.832,5.517,0.946l10.136,14.329
					C343.328,157.617,342.903,160.1,341.126,161.357z"/>
			</g>
			<g>
				<g>
					<path style="fill:#019FAC;" d="M330.661,142.514c-1.208-0.503-6.588,3.616-7.594,4.408c-2.794,2.2-1.59,1.961-1.856,1.968
						c0.967-0.028,1.241-0.662,4.867-2.791C328.352,144.764,332.014,143.076,330.661,142.514z"/>
				</g>
				<g>
					<path style="fill:#019FAC;" d="M333.444,145.727c-1.629-0.536-17.532,12.094-4.318,3.89
						C330.729,148.622,335.161,146.292,333.444,145.727z"/>
				</g>
				<g>
					<path style="fill:#019FAC;" d="M335.317,149.756c-0.975,0.061-10.608,6.971-8.828,6.345
						C330.029,154.852,338.815,149.536,335.317,149.756z"/>
				</g>
				<g>
					<path style="fill:#019FAC;" d="M338.85,152.858c-1.536-0.497-14.991,10.028-6.503,5.149
						C334.573,156.727,340.674,153.448,338.85,152.858z"/>
				</g>
				<g>
					<path style="fill:#019FAC;" d="M341.64,156.773c-1.275-0.065-7.403,4.535-8.542,6.361
						C332.458,164.156,344.39,156.913,341.64,156.773z"/>
				</g>
			</g>
			<path style="opacity:0.2;fill:#FFFFFF;" d="M341.082,156.938c-0.222-1.081-4.308-7.401-4.366-7.49
				c-3.111-4.786-5.66-10.326-9.516-7.952c-0.354,0.218-14.323,10.359-0.083,1.059c3.626-2.368,4.003,0.816,10.721,12.05
				c0.611,1.021,1.148,2.247,2.087,3.007C340.461,158.044,341.228,157.648,341.082,156.938z"/>
			<path style="opacity:0.2;fill:#FFFFFF;" d="M329.878,145.615c-2.984,0.14-6.828,5.009-5.829,4.256
				C324.769,149.329,332.385,145.497,329.878,145.615z"/>
			<path style="opacity:0.2;fill:#FFFFFF;" d="M331.528,150.013c-1.599,0.04-6.543,3.439-3.205,2.173
				C328.797,152.005,333.337,149.968,331.528,150.013z"/>
			<path style="opacity:0.2;fill:#FFFFFF;" d="M332.695,153.564c-1.385-0.358-4.526,2.77-3.281,2.664
				C330.109,156.169,334.404,154.006,332.695,153.564z"/>
			<path style="opacity:0.2;fill:#FFFFFF;" d="M335.263,158.19c-2.434-0.08-3.896,2.939-3.43,2.578
				C333.938,159.134,336.619,158.235,335.263,158.19z"/>
			<path style="opacity:0.2;fill:#FFFFFF;" d="M339.038,160.428c-1.959,1.077-5.514,4.546-3.224,3.063
				C340.171,160.667,339.354,160.254,339.038,160.428z"/>
			<path style="opacity:0.1;fill:#FFFFFF;" d="M319.335,157.733c-0.23,0.23,3.051-0.514,3.607-1.293
				C323.695,155.382,321.803,155.275,319.335,157.733z"/>
			<path style="opacity:0.1;fill:#FFFFFF;" d="M325.243,159.827c-1.453-0.285-2.61,2.412-1.443,1.96
				C324.405,161.82,326.249,160.024,325.243,159.827z"/>
		</g>
		<g>
			<path style="fill:#3D4F61;" d="M401.319,311.119c-3.102-16.629-8.431-28.629-14.5-37.289
				c-17.127-46.158-53.63-95.437-70.055-117.611c-3.646-4.922-6.526-8.81-7.572-10.485l-10.519,6.568
				c1.306,2.093,4.019,5.755,8.126,11.299c13.366,18.044,40.468,54.632,58.641,91.751c-2.169-1.016-4.206-1.772-6.034-2.333
				c-17.459-5.366-37.006,0.084-51.014,14.222c-17.296,17.457-22.53,43.923-13.999,70.796c1.423,4.482,3.197,8.584,5.288,12.279
				c-10.517-11.796-20.209-31.575-24.937-64.554l-12.276,1.76c8.557,59.689,33.31,81.048,52.568,88.455
				c6.603,2.539,13.599,3.778,20.685,3.778c15.137,0,30.669-5.659,43.55-16.379C396.25,349.248,404.697,329.225,401.319,311.119z
				 M306.214,334.284c-7.109-22.395-3.002-44.195,10.988-58.314c8.077-8.152,18.422-12.578,28.598-12.578
				c3.369,0,6.721,0.486,9.963,1.483c7.906,2.429,14.73,7.597,20.24,15.163c5.087,14.192,8.056,27.853,7.574,39.931
				c-0.883,22.08-21.292,38.42-39.694,40.895C326.065,363.259,312.337,353.572,306.214,334.284z"/>
			<path style="opacity:0.05;fill:#FFFFFF;" d="M383.665,348.809c-26.148,33.079-95.665,47.069-115.519-56.794
				c-0.06-0.312,0.388-0.443,0.48-0.133c8.1,27.211,16.413,60.343,44.912,73.272c42.279,19.182,89.616-25.696,77.942-63.705
				c-32.524-105.898-129.094,2.523-80.569,47.428c1.75,1.62-0.869,4.226-2.613,2.613c-46.842-43.304,30.263-138.316,72.556-80.944
				C400.261,296.871,404.03,323.045,383.665,348.809z"/>
			<path style="opacity:0.05;fill:#FFFFFF;" d="M371.571,246.665c-7.118-20.93-75.367-109.191-67.62-95.368
				c15.257,27.221,43.721,61.48,56.095,81.183c11.088,17.656,7.452,19.678,11.304,26.529
				C372.652,261.323,375.369,257.832,371.571,246.665z"/>
		</g>
		<g>
			<path style="fill:#4A6075;" d="M345.862,380.092c-10.245,0-19.898-2.562-28.215-7.532c-1.726-1.03-3.379-2.159-4.959-3.382
				c-3.462-0.627-6.934-1.4-10.403-2.321c-20.449-5.421-49.993-18.398-74.606-49.433l9.717-7.706
				c19.984,25.198,43.468,37.358,61.527,43.223c-1.784-3.237-3.293-6.717-4.51-10.416c-6.871-20.907-2.262-41.666,12.646-56.955
				c15.155-15.541,38.287-22.085,57.561-16.283c19.082,5.744,32.114,22.166,36.696,46.239c0.468,2.46,0.726,4.885,0.779,7.265
				c1.055-3.679,1.847-7.584,2.337-11.721c7.096-59.927-5.996-126.866-14.851-156.971l11.898-3.499
				c9.12,31.01,22.6,100.012,15.268,161.929c-5.004,42.259-36.981,64.481-64.574,67.245
				C350.05,379.986,347.943,380.092,345.862,380.092z M318.092,357.489c18.471,2.786,36.564,0.978,50.162-5.247
				c9.421-4.312,24.661-14.516,20.878-34.397c-4.709-24.748-17.873-33.607-28.087-36.682c-14.961-4.508-33.092,0.746-45.107,13.066
				c-6.8,6.973-17.109,22.017-9.743,44.424C308.885,346.841,313.077,353,318.092,357.489z"/>
			<path style="opacity:0.05;fill:#FFFFFF;" d="M401.967,175.812c15.625,134.799,15.414,161.922-30.197,187.833
				c-8.623,4.898-18.001,9.415-28.025,10.247c-36.772,3.052-59.375-49.954-39.09-77.673c18.234-24.917,68.821-29.521,84.111,0.595
				c16.802,33.094-12.653,69.329-54.444,63.16c-2.737-0.404-3.936,3.773-1.159,4.204c35.43,5.5,67.391-20.921,62.848-54.088
				c-5.254-38.353-49.099-45.284-78.56-28.785c-35.191,19.708-26.781,68.983,0.761,88.414
				c29.067,20.508,80.587-10.583,91.161-43.856C422.901,283.297,399.951,158.41,401.967,175.812z"/>
			<path style="opacity:0.05;fill:#FFFFFF;" d="M298.866,357.709c-5.753-5.151-25.319-3.238-59.696-36.389
				c-4.948-4.772,9.508,18.989,43.104,33.426c4.577,1.967,11.091,5.641,16.144,4.663
				C299.157,359.266,299.413,358.198,298.866,357.709z"/>
			<path style="opacity:0.2;fill:#4A6075;" d="M399.536,324.888c-11.096,24.825-39.277,40.643-53.461,41.737
				c-9.166,0.707-16.456-4.806-24.527-8.049c-1.466-0.589-2.203,1.638-1.024,2.429c17.826,11.942,31.35,8.47,48.824-1.535
				C397.541,343.325,400.491,322.751,399.536,324.888z"/>
			<path style="opacity:0.2;fill:#4A6075;" d="M306.705,365.198c-8.527-8.796-5.98-8.208-8.625-10.411
				c-1.123-0.935-2.063,1.347,2.628,6.354C303.898,364.542,307.177,365.684,306.705,365.198z"/>
			<path style="opacity:0.2;fill:#4A6075;" d="M404.028,170.735c-1.191-0.066-5.976,1.48-7.115,2.742
				c-2.179,2.413,5.933,0.89,7.967-0.686C405.774,172.098,404.955,170.786,404.028,170.735z"/>
		</g>
		<g>
			<g>
				<path style="fill:#018693;" d="M257.163,76.126l-6.509,4.604c-1.989,1.407-4.767,0.93-6.174-1.058l-8.696-12.294
					c-1.407-1.989-0.931-4.767,1.058-6.174l6.509-4.604c1.989-1.407,4.767-0.931,6.174,1.058l8.696,12.294
					C259.628,71.941,259.152,74.72,257.163,76.126z"/>
			</g>
			<g>
				<path style="fill:#018693;" d="M311.388,152.786l-6.509,4.604c-1.989,1.407-4.767,0.93-6.174-1.058l-8.696-12.295
					c-1.407-1.989-0.931-4.767,1.058-6.174l6.509-4.604c1.989-1.407,4.767-0.93,6.174,1.058l8.696,12.294
					C313.853,148.601,313.377,151.379,311.388,152.786z"/>
			</g>
			<g>
				
					<ellipse transform="matrix(0.8164 -0.5775 0.5775 0.8164 -11.5801 177.7909)" style="fill:#019FAC;" cx="273.82" cy="107.107" rx="31.814" ry="47.208"/>
			</g>
			<g>
				<path style="fill:#018693;" d="M301.083,145.652c-10.346,7.317-25.636,4.66-39.003-5.386
					c11.959,7.025,24.688,8.203,33.688,1.842c14.342-10.152,13.766-35.628-1.293-56.915c-4.199-5.935-9.08-10.922-14.253-14.802
					c7.113,4.163,13.952,10.4,19.568,18.346C314.849,110.024,315.425,135.501,301.083,145.652z"/>
			</g>
			<path style="opacity:0.1;fill:#FFFFFF;" d="M284.728,142.531c-24.702-5.661-40.177-36.036-39.483-53.652
				c0.378-9.585,5.255-11.597,7.824-15.609c3.358-5.244-11.461-7.735-14.723,10.461c-3.827,21.348,17.158,62.193,46.354,59.004
				C284.808,142.723,284.851,142.559,284.728,142.531z"/>
			<path style="opacity:0.05;fill:#FFFFFF;" d="M244.802,58.203c-2.085,0.343-7.453,3.975-7.9,5.427
				c-0.858,2.792,4.451,8.518,4.217,7.065c-0.701-4.343-2.823-5.389-0.937-7.092c1.81-1.634,4.179-1.944,5.651-4.058
				C246.338,58.82,245.507,58.087,244.802,58.203z"/>
			<path style="opacity:0.05;fill:#FFFFFF;" d="M304.522,143.131c-1.007,0.488-6.769,4.773-7.883,5.916
				c-0.485,0.497,1.93,0.132,4.948-1.883C306.848,143.65,305.25,142.778,304.522,143.131z"/>
			<path style="opacity:0.05;fill:#FFFFFF;" d="M309.482,148.832c-3.876,0.229-6.365,4.098-7.479,3.902
				c-0.7-0.123-4.072-2.945-3.295-1.559C304.488,161.504,314.558,148.532,309.482,148.832z"/>
		</g>
		<g>
			<polygon style="fill:#303E4D;" points="416.133,143.491 372.417,154.887 373.727,124.794 400.299,117.867 			"/>
			<path style="fill:#3D4F61;" d="M419.688,165.908l-39.431,10.279c-2.357,0.615-4.789-0.811-5.403-3.169l-5.81-22.287
				c-0.615-2.357,0.811-4.789,3.169-5.403l39.431-10.279c2.357-0.615,4.789,0.811,5.403,3.169l5.81,22.287
				C423.472,162.862,422.046,165.294,419.688,165.908z"/>
			
				<ellipse transform="matrix(0.7397 -0.673 0.673 0.7397 34.4031 281.0195)" style="fill:#3D4F61;" cx="380.421" cy="96.044" rx="38.977" ry="38.977"/>
			
				<ellipse transform="matrix(0.7071 -0.7071 0.7071 0.7071 43.5098 297.129)" style="fill:#FFFFFF;" cx="380.421" cy="96.044" rx="32.614" ry="32.614"/>
			<g>
				<path style="fill:#D3EBED;" d="M388.648,127.599c-12.685,3.304-25.574-1.32-33.387-10.807
					c7.795,6.405,18.443,9.115,28.958,6.378c17.433-4.535,27.877-22.35,23.333-39.783c-1.24-4.748-3.455-8.974-6.396-12.526
					c5.129,4.216,9.018,10.036,10.825,16.955C416.525,105.249,406.081,123.063,388.648,127.599z"/>
			</g>
			<g>
				<g>
					<path style="fill:#019FAC;" d="M379.709,67.561l0.191,5.785c-6.853-0.338-13.807,2.208-18.895,7.581
						c-9.12,9.631-8.844,24.748,0.52,34.041l-1.243,1.226c-10.89-10.869-11.19-28.501-0.548-39.74
						C365.158,70.724,372.396,67.744,379.709,67.561z"/>
				</g>
				<path style="fill:#EF5736;" d="M399.924,75.276l-4.492,4.693c-4.395-4.151-9.928-6.352-15.533-6.624l-0.191-5.785
					C386.94,67.38,394.242,69.937,399.924,75.276z"/>
			</g>
			<g>
				<g style="opacity:0.75;">
					<polygon style="fill:#DEE7EE;" points="386.111,107.932 379.623,107.232 386.652,72.493 					"/>
					<path style="fill:#DEE7EE;" d="M388.503,98.197c-0.272,2.524-2.539,4.35-5.064,4.077c-2.524-0.272-4.35-2.539-4.077-5.064
						s2.539-4.35,5.064-4.077C386.95,93.406,388.775,95.673,388.503,98.197z"/>
					<path style="fill:#DEE7EE;" d="M385.997,97.927c-0.123,1.14-1.147,1.964-2.287,1.841c-1.14-0.123-1.964-1.147-1.841-2.287
						c0.123-1.14,1.147-1.964,2.287-1.841C385.295,95.763,386.12,96.787,385.997,97.927z"/>
				</g>
				<g>
					<g>
						<polygon style="fill:#3D4F61;" points="382.567,106.161 376.08,105.461 383.109,70.722 						"/>
						<path style="fill:#3D4F61;" d="M384.96,96.426c-0.272,2.524-2.539,4.35-5.063,4.077c-2.524-0.272-4.35-2.539-4.077-5.063
							s2.539-4.35,5.064-4.077C383.406,91.634,385.232,93.901,384.96,96.426z"/>
						<path style="fill:#FFFFFF;" d="M382.453,96.155c-0.123,1.14-1.147,1.964-2.287,1.841c-1.14-0.123-1.964-1.147-1.841-2.287
							c0.123-1.14,1.147-1.964,2.287-1.841C381.752,93.992,382.576,95.015,382.453,96.155z"/>
					</g>
				</g>
			</g>
			<path style="opacity:0.05;fill:#FFFFFF;" d="M387.56,60.748c-6.149-3.733-19.59-0.121-25.942,3.552
				c-27.765,16.054-21.981,57.806,4.573,65.187c2.591,0.719-28.334-14.025-19.312-43.201c8.527-27.572,38.107-23.452,40.462-23.869
				C388.151,62.275,388.184,61.127,387.56,60.748z"/>
			<path style="opacity:0.05;fill:#FFFFFF;" d="M413.974,81.893c1.931,12.629,7.572,27.014-17.213,45.953
				c-1.395,1.065,11.741-2.776,18.561-18.421C423.7,90.205,413.054,75.869,413.974,81.893z"/>
			<path style="opacity:0.05;fill:#FFFFFF;" d="M413.455,137.592c-6.111,0.022-12.809,2.797-18.724,4.303
				c-16.698,4.253-23.444,3.16-21.655,12.678c1.043,5.55,2.177,12.423,5.628,17.028c1.386,1.848-2.028-12.869-2.046-12.958
				c-0.612-3.022-2.633-7.522,1-9.554c1.965-1.099,31.523-7.007,36.32-9.563C414.901,139.035,414.461,137.588,413.455,137.592z"/>
			<path style="opacity:0.05;fill:#FFFFFF;" d="M418.489,155.73c-0.487-0.98-2.091-0.509-2.05,0.555
				c0.133,3.513,1.171,4.593-0.777,4.894c-2.06,1.347-8.698,1.713-20.776,8.09c-0.562,0.297,0.457-0.28,21.122-5.581
				C419.969,162.673,420.225,159.221,418.489,155.73z"/>
			<path style="opacity:0.05;fill:#FFFFFF;" d="M403.374,146.31c-4.074,3.074-4.658,7.1-15.855,15.358
				c-1.304,0.961,4.686-1.317,9.777-5.602C405.767,148.937,404.908,145.153,403.374,146.31z"/>
			<path style="opacity:0.05;fill:#FFFFFF;" d="M407.311,150.492c-1.503,1.328-2.657,3.111-4.119,4.514
				c-1.31,1.258-2.918,2.403-3.962,3.887c-0.564,0.802,7.336-1.267,9.226-7.735C408.658,150.469,407.803,150.058,407.311,150.492z"
				/>
			<path style="opacity:0.05;fill:#FFFFFF;" d="M402.353,134.038c-3.479,0.144-30.232,5.788-24.457,5.284
				c1.814-0.158,21.017-2.691,24.65-3.856C403.297,135.225,403.205,134.003,402.353,134.038z"/>
			<path style="opacity:0.05;fill:#FFFFFF;" d="M381.375,83.856c-0.057-0.796-1.081,6.088-1.092,6.177
				C380.193,90.75,381.876,90.912,381.375,83.856z"/>
			<path style="opacity:0.05;fill:#FFFFFF;" d="M378.875,103.166c1.959-7.822-2.648,1.134-1.034,1.458
				c1.49,0.3,2.736,0.622,3.1-0.396C381.151,103.639,380.758,102.815,378.875,103.166z"/>
		</g>
		<g>
			<g>
				<path style="fill:#019FAC;" d="M322.223,256.739l-126.074,89.178c-19.99,14.14-47.657,9.397-61.797-10.592L63.143,234.653
					c-14.14-19.99-9.397-47.657,10.592-61.797L199.81,83.678c2.871-2.031,6.844-1.35,8.875,1.521l115.06,162.664
					C325.775,250.735,325.094,254.708,322.223,256.739z"/>
			</g>
			<g>
				<path style="fill:#018693;" d="M323.745,247.864l-3.383-4.782l-130.245,92.128c-16.023,11.334-38.201,7.533-49.535-8.491
					l-67.25-95.074c-11.334-16.024-7.533-38.201,8.491-49.536l130.245-92.128l-3.382-4.782c-2.031-2.871-6.004-3.552-8.875-1.521
					L73.736,172.856c-19.99,14.14-24.732,41.807-10.592,61.797l71.209,100.671c14.14,19.99,41.807,24.732,61.797,10.592
					l126.074-89.178C325.094,254.708,325.775,250.735,323.745,247.864z"/>
			</g>
			<path style="opacity:0.05;fill:#FFFFFF;" d="M202.791,87.568c-8.463,2.911-108.457,73.108-108.947,73.469
				c-47.114,34.726-30.247,65.802-31.005,61.487c-7.888-44.845,41.01-64.931,120.306-117.115c7.115-4.682,15.442-8.845,21.14-15.273
				C205.229,89.072,204.341,87.035,202.791,87.568z"/>
			<path style="opacity:0.05;fill:#FFFFFF;" d="M316.623,252.421c-18.223,7.135-112.501,79.471-124.052,85.851
				c-28.303,15.633-45.581,1.392-45.342,1.585c31.647,25.588,70.417-17.922,131.116-57.362
				c33.259-21.61,35.278-22.992,39.793-27.472C319.174,253.996,318.127,251.832,316.623,252.421z"/>
			<path style="opacity:0.05;fill:#FFFFFF;" d="M101.724,285.78c7.325,10.976,14.233,23.019,23.198,32.746
				C145.24,340.57,33.502,183.551,101.724,285.78z"/>
			<path style="opacity:0.05;fill:#FFFFFF;" d="M117.559,167.041c-12.764,11.345-23.065,36.118-26.954,51.205
				c-3.871,15.017-1.95,19.951-1.851,18.979c3.284-31.888,28.046-64.5,30.5-68.876C119.869,167.255,118.466,166.235,117.559,167.041
				z"/>
			<path style="opacity:0.05;fill:#FFFFFF;" d="M138.351,162.484c-27.25,27.72-35.508,83.552-32.751,76.419
				c4.191-10.846,4.115-18.782,13.945-39.698c5.855-12.458,13.636-23.551,20.534-35.387
				C140.705,162.744,139.236,161.584,138.351,162.484z"/>
			<path style="opacity:0.05;fill:#FFFFFF;" d="M270.999,209.378c-4.662,8.607-5.986,18.059-14.627,39.26
				c-6.34,15.555-21.824,43.578-18.754,40.017c14.915-17.291,35.81-61.199,36.475-78.439
				C274.158,208.577,271.776,207.944,270.999,209.378z"/>
			<path style="opacity:0.05;fill:#FFFFFF;" d="M282.866,231.637c-1.842,3.062-13.931,31.361-14.865,34.52
				c-0.324,1.097,3.141-1.899,10.413-15.62C290.005,228.671,283.876,229.958,282.866,231.637z"/>
		</g>
		<g>
			<g style="opacity:0.2;">
				<path style="fill:#018693;" d="M176.304,194.057c0,0,5.843-31.4,35.41-37.664c24.583-5.209,46.235,13.428,51.719,39.312
					c6.348,29.96-9.236,70.303-62.664,113.817c-66.484-18.107-97.09-48.663-103.438-78.624c-5.484-25.884,6.749-51.7,31.332-56.908
					C158.229,167.725,176.304,194.057,176.304,194.057z"/>
				<path style="fill:#018693;" d="M263.435,195.707c6.347,29.956-9.237,70.299-62.668,113.817
					c18.94-23.909,61.849-65.905,49.858-118.104c-3.608-15.706-12.677-28.839-25.021-35.486
					C244.098,158.695,259.015,174.843,263.435,195.707z"/>
				<path style="opacity:0.1;fill:#018693;" d="M170.041,192.622c-12.624-16.084-39.955-16.936-54.444-2.865
					c-16.111,15.646-23.038,51.609,17.385,77.283c3.318,2.107-28.94-28.852-17.224-58.556
					c10.441-26.473,37.202-14.641,51.645-11.803C169.833,197.158,171.682,194.712,170.041,192.622z"/>
				<path style="opacity:0.1;fill:#018693;" d="M224.49,161.521c-10.783-4.814-44.632,10.843-36.43,33.833
					c1.151,3.225,0.313-8.482,13.806-17.81c8.182-5.657,20.614-7.734,23.767-10.626C227.532,165.176,226.625,162.474,224.49,161.521
					z"/>
				<path style="opacity:0.1;fill:#018693;" d="M227.237,265.989c-5.445,4.705-27.129,31.295-30.657,33.085
					c-2.917,1.481-6.391-2.218-21.327-8.868c-1.813-0.807-25.437-11.371-22.513-9.246c9.284,6.747,25.285,16.217,35.366,21.813
					c9.7,5.385,9.484,3.992,18.626-4.946c8.055-7.875,19.468-19.454,23.959-29.592C231.601,266.181,228.732,264.698,227.237,265.989
					z"/>
				
					<polyline style="fill:none;stroke:#018693;stroke-width:3.4244;stroke-linecap:round;stroke-linejoin:round;stroke-miterlimit:10;" points="
					120.02,249.149 139.996,244.917 153.295,269.571 156.552,213.405 182.235,277.972 186.294,218.305 194.919,232.58 
					210.329,229.315 214.407,201.147 234.88,235.414 236.987,222.966 253.945,219.373 				"/>
				
					<polyline style="fill:none;stroke:#018693;stroke-width:3.4244;stroke-linecap:round;stroke-linejoin:round;stroke-miterlimit:10;" points="
					117.28,246.41 137.257,242.177 150.555,266.831 153.813,210.666 179.496,275.233 183.554,215.566 192.179,229.84 
					207.589,226.575 211.667,198.408 232.141,232.675 234.248,220.227 251.206,216.634 				"/>
			</g>
			<g>
				<g>
					<g>
						<path style="fill:#EF5736;" d="M173.275,191.028c0,0,5.843-31.4,35.41-37.664c24.583-5.209,46.235,13.428,51.719,39.312
							c6.348,29.96-9.236,70.303-62.664,113.817c-66.484-18.107-97.09-48.663-103.438-78.624
							c-5.484-25.884,6.749-51.7,31.332-56.908C155.2,164.696,173.275,191.028,173.275,191.028z"/>
						<path style="fill:#EE4829;" d="M260.407,192.679c6.347,29.956-9.237,70.3-62.668,113.817
							c18.94-23.909,61.849-65.905,49.858-118.104c-3.608-15.706-12.677-28.839-25.021-35.486
							C241.069,155.667,255.986,171.815,260.407,192.679z"/>
					</g>
					<path style="opacity:0.1;fill:#FFFFFF;" d="M167.013,189.593c-12.624-16.084-39.955-16.936-54.444-2.865
						c-16.111,15.646-23.038,51.609,17.385,77.283c3.318,2.107-28.94-28.852-17.224-58.556
						c10.441-26.473,37.202-14.641,51.645-11.803C166.804,194.129,168.653,191.683,167.013,189.593z"/>
					<path style="opacity:0.1;fill:#FFFFFF;" d="M221.461,158.492c-10.783-4.814-44.632,10.843-36.43,33.833
						c1.151,3.225,0.313-8.482,13.806-17.81c8.182-5.657,20.614-7.734,23.767-10.626
						C224.503,162.147,223.596,159.445,221.461,158.492z"/>
					<path style="opacity:0.1;fill:#FFFFFF;" d="M224.208,262.96c-5.445,4.705-27.129,31.295-30.657,33.085
						c-2.917,1.481-6.391-2.218-21.327-8.868c-1.813-0.807-25.437-11.37-22.513-9.246c9.284,6.747,25.285,16.217,35.366,21.813
						c9.7,5.385,9.484,3.992,18.627-4.946c8.055-7.876,19.467-19.454,23.959-29.592C228.573,263.152,225.703,261.669,224.208,262.96
						z"/>
					<g>
						<g style="opacity:0.3;">
							
								<polyline style="fill:none;stroke:#EE4829;stroke-width:3.4244;stroke-linecap:round;stroke-linejoin:round;stroke-miterlimit:10;" points="
								116.991,246.12 136.968,241.888 150.266,266.542 153.523,210.377 179.207,274.944 183.265,215.276 191.89,229.551 
								207.3,226.286 211.378,198.119 231.852,232.385 233.959,219.938 250.916,216.345 							"/>
						</g>
						<g>
							
								<polyline style="fill:none;stroke:#FFFFFF;stroke-width:3.4244;stroke-linecap:round;stroke-linejoin:round;stroke-miterlimit:10;" points="
								114.251,243.381 134.228,239.148 147.527,263.803 150.784,207.637 176.467,272.204 180.525,212.537 189.151,226.811 
								204.561,223.546 208.639,195.379 229.112,229.646 231.219,217.198 248.177,213.605 							"/>
						</g>
					</g>
				</g>
			</g>
		</g>
	</g>
	<g>
		<text transform="matrix(1 0 0 1 209.7507 432.8496)" style="fill:#019FAC; font-family:'Baloo'; font-size:31.9188px;">World</text>
		<text transform="matrix(1 0 0 1 114.1555 462.5156)" style="fill:#EE4829; font-family:'Baloo'; font-size:31.9188px;">Hypertension Day</text>
	</g>
</g>
</svg>
