<svg xmlns="http://www.w3.org/2000/svg" viewBox="0 0 500 500" id="heart"><circle cx="250" cy="250" r="228.8" fill="none" stroke="#5c77ff" stroke-dasharray="10.067 20.134" stroke-linecap="round" stroke-linejoin="round" stroke-width="10" opacity=".4"></circle><circle cx="250" cy="250" r="206.3" fill="#a4b8ff" opacity=".4"></circle><path fill="#fff" d="M402 323.8c2.2 36.3-2.8 79.2-21.1 128.3-1.1 2.9-2.2 5.9-3.4 8.8 0 0-47.4 85.4-218.2-57.7 0 0-38.1-28.7-58.6-73.5 10.3-25.3 20-38.5 29.6-46.8 26-22.4 51.4-8.3 85.1-97.6 7.9-21 18.3-38.4 30-52.9 15.2-18.8 32.7-32.7 50.1-42.9 15.1-8.8 30.1-14.9 43.6-19.1 28.6-8.9 50.2-9.2 50.2-9.2s4.9 9.7 12.1 25.1c2.4 5.2 5.1 11 8 17.4-10.1 1.5-34.3 6.1-58 16.5 0 0-51.2 15.3-59.9 71.4-5.8 37.5 57.4 61.6 100 73.4.3.9.5 1.8.8 2.7.2.7.4 1.4.6 2l.6 2.1.6 2.1.6 2.1c.3 1.3.7 2.6 1 3.9.8 3.2 1.5 6.4 2.1 9.7.1.6.2 1.3.4 2 .2.8.3 1.5.4 2.3s.3 1.6.4 2.3c.2 1.5.5 3 .7 4.6.4 2.5.7 5 1 7.5.1.8.2 1.7.3 2.5.1.8.2 1.7.3 2.5 0 .3.1.6.1.9.2 1.4.3 2.8.4 4.2.1.9.1 1.7.2 2.6-.1 1.1-.1 1.9 0 2.8z"></path><path fill="#fff" d="M348.8 186.6c4.2-22.3 4.9-45.1 2.6-66.4 0 0-51.2 15.3-59.9 71.4-5.8 37.5 57.4 61.6 100 73.4-.1-.5-.3-.9-.4-1.3-15.9-50.2-42.3-77.1-42.3-77.1z"></path><path fill="#fff" d="M391.4 265c-42.6-11.8-105.8-35.9-100-73.4 8.7-56.1 59.9-71.4 59.9-71.4 2.4 21.4 1.7 44.1-2.6 66.4 0 0 26.4 26.9 42.2 77.1.2.4.3.9.5 1.3z"></path><path fill="#485eff" d="M391.4 265c-42.6-11.8-105.8-35.9-100-73.4 8.7-56.1 59.9-71.4 59.9-71.4 2.4 21.4 1.7 44.1-2.6 66.4 0 0 26.4 26.9 42.2 77.1.2.4.3.9.5 1.3z" opacity=".35"></path><path fill="#fff" d="M307.7 26.3C291.9 14 272.5 9.1 250.1 15.2c-73.7 20-74.7 130.9-74.7 130.9-10 2.5-17.8 10.1-17.8 10.1-4.7-55.4-49.4-79.3-49.4-79.3l-7.8 35.6-3.1 14c22.7 26.3 25.7 60.1 25.7 60.1-44.4 54.2-40 104.6-22.4 143.2 6.9-17 13.5-28.5 20-36.8 3.2-4.1 6.4-7.3 9.6-10.1 26-22.4 51.4-8.3 85.1-97.6 7.9-21 18.3-38.4 30-52.9 0 0-5.8 0-10.6-3.7-2.4-1.8-4.5-4.5-5.5-8.5-2.1-8.5.6-22.8 16.1-47 0 0 21.7-31.1 50.1 16.4 15.1-8.8 30.1-14.9 43.6-19.1-7.6-18.5-18.2-33.9-31.3-44.2z"></path><path fill="#48486a" d="M306.7 353c.4 5.6 1.3 11.3 2.6 16.9 1.3 5.6 2.9 11.1 5.2 16.3 1.1 2.6 2.4 5.2 3.8 7.7s3.1 4.8 4.9 7c1.9 2.2 3.9 4.2 6.2 5.9 2.3 1.7 4.8 3.1 7.5 4.2-2.7-1-5.3-2.4-7.7-4-2.4-1.6-4.5-3.6-6.5-5.8-2-2.1-3.7-4.5-5.2-6.9-1.6-2.4-3-5-4.2-7.6-2.5-5.3-4.4-10.8-5.8-16.4-1.5-5.6-2.6-11.3-3.2-17.1-.1-.7.4-1.3 1.1-1.3.6-.1 1.2.4 1.3 1.1z"></path><path fill="#485eff" d="M409.4 103.7c-10.1 1.5-34.3 6.1-58 16.5 0 0-51.2 15.3-59.9 71.4-5.2-88.6 110-105.2 110-105.2l7.9 17.3zM339 70.5c-13.5 4.2-28.5 10.2-43.6 19.1-28.5-47.5-50.1-16.4-50.1-16.4-15.5 24.3-18.2 38.6-16.1 47-7.2-24.2-3.5-56 25.8-68.5s55.2 24.4 62.6 11.5c7.2-12.7-9.3-36.1-9.9-36.8C320.8 36.6 331.4 52 339 70.5zm41.9 381.6c-1.1 2.9-2.2 5.9-3.4 8.8 0 0-47.4 85.4-218.2-57.7 0 0-38.1-28.7-58.6-73.5 10.3-25.3 20-38.5 29.6-46.8 1.7 14.8 5.3 29.9 11.7 44C188.9 429.4 339 512 380.9 452.1z" opacity=".35"></path><path fill="#485eff" d="M234.7 128.7c-23.4 16.9-30.5 62.5-51.4 96.5-9 14.7-20.3 24.1-30.3 30.1-10.8 6.5-24.4-1.8-23.6-14.3 1.3-21.9 4.7-39.9 5.1-48.3 2.9-55.2-34-80.1-34-80.1l-3.1 14c22.7 26.3 25.7 60.1 25.7 60.1-44.4 54.2-40 104.6-22.4 143.2 7-17.1 13.7-28.7 20.2-37 .3-.3.5-.6.8-.9.1-.1.2-.3.4-.4.3-.4.7-.8 1-1.2.1-.2.3-.3.4-.5.2-.2.4-.5.6-.7s.4-.4.5-.6c.2-.2.3-.4.5-.5l.6-.6.5-.5 1-1 .5-.5c.2-.2.4-.4.6-.5.2-.2.4-.3.5-.5.2-.1.3-.3.5-.4.3-.3.7-.6 1-.9 26-22.4 51.4-8.3 85.1-97.6 7.9-21 18.3-38.4 30-52.9-.1-.3-5.9-.3-10.7-4z" opacity=".35"></path><path fill="none" stroke="#2f4d7c" stroke-linecap="round" stroke-linejoin="round" stroke-miterlimit="10" stroke-width="10" d="M348.8 186.6c4.2-22.3 4.9-45.1 2.6-66.4 0 0-51.2 15.3-59.9 71.4-5.8 37.5 57.4 61.6 100 73.4-.1-.5-.3-.9-.4-1.3-15.9-50.2-42.3-77.1-42.3-77.1zM97.4 126.5c22.7 26.3 25.7 60.1 25.7 60.1-44.4 54.2-40 104.6-22.4 143.2h0c38.1-93.8 68.5-22.2 114.7-144.4 7.9-21 18.3-38.4 30-52.9 0 0-37.6-.3 0-59.3 0 0 21.7-31.1 50.1 16.4 15.1-8.8 30.1-14.9 43.6-19.1-16.7-40.8-48-66.4-88.9-55.3-73.7 20-74.7 130.9-74.7 130.9-10 2.5-17.8 10.1-17.8 10.1-4.7-55.4-49.4-79.3-49.4-79.3l-10.9 49.6z"></path><path fill="none" stroke="#2f4d7c" stroke-linecap="round" stroke-linejoin="round" stroke-miterlimit="10" stroke-width="10" d="M295.4 89.5c-17.4 10.2-34.9 24-50.1 42.9 0 0-37.6-.3 0-59.3 0 .1 21.7-31 50.1 16.4zm96 175.5c-42.6-11.8-105.8-35.9-100-73.4 8.7-56.1 59.9-71.4 59.9-71.4 2.4 21.4 1.7 44.1-2.6 66.4 0 0 26.4 26.9 42.2 77.1.2.4.3.9.5 1.3z"></path><path fill="none" stroke="#2f4d7c" stroke-linecap="round" stroke-linejoin="round" stroke-miterlimit="10" stroke-width="10" d="M402 323.8c2.3 38.4-3.4 84.4-24.5 137.1 0 0-47.4 85.4-218.2-57.7 0 0-38.1-28.7-58.6-73.5h0c38.1-93.8 68.5-22.2 114.7-144.4 7.9-21 18.3-38.4 30-52.9 15.2-18.8 32.7-32.7 50.1-42.9 15.1-8.8 30.1-14.9 43.6-19.1 28.6-8.9 50.2-9.2 50.2-9.2s8.9 17.5 20.1 42.4c-10.1 1.6-34.3 6.1-58 16.5 0 0-51.2 15.3-59.9 71.4-5.8 37.5 57.4 61.6 100 73.4.3.9.5 1.8.8 2.7.2.7.4 1.4.6 2l.6 2.1.6 2.1.6 2.1c.3 1.3.7 2.6 1 3.9.8 3.2 1.5 6.4 2.1 9.7.1.6.3 1.3.4 2 .2.8.3 1.5.4 2.3s.3 1.6.4 2.4c.3 1.5.5 3 .7 4.6.4 2.5.7 5 1 7.5.1.8.2 1.7.3 2.5.1.8.2 1.7.3 2.5 0 .3.1.6.1.9.1 1.4.3 2.8.4 4.2.1.9.1 1.7.2 2.6-.1 1.1-.1 1.9 0 2.8z"></path><g fill="#2f4d7c"><path d="M293.6 276.6c.1.7.1 1.2 0 1.7 0 .5-.1 1-.1 1.5-.1 1-.2 2-.4 3-.3 2-.9 3.8-1.5 5.7-1.3 3.7-3.1 7.1-5.1 10.3l-1.6 2.3c-.6.8-1.2 1.5-1.7 2.2-1.1 1.5-2.5 2.8-3.7 4.2-1.3 1.4-2.7 2.6-4 3.9l-4.3 3.6 3.8-4c1.2-1.4 2.4-2.8 3.5-4.3s2.2-2.9 3.1-4.5c.5-.8 1-1.5 1.4-2.3l1.3-2.4c1.6-3.2 2.9-6.6 3.7-10.1.4-1.7.7-3.5.8-5.2.1-.9.1-1.7.1-2.6 0-.4 0-.8-.1-1.2 0-.4-.1-.9-.1-1.1-.3-1.4.5-2.8 1.9-3.1 1.4-.3 2.8.5 3.1 1.9-.1.2-.1.3-.1.5zm81.8 23.9c.4 1.6.7 3 1.1 4.5l.9 4.5c.6 3 1.1 5.9 1.5 8.9.9 6 1.5 11.9 1.9 17.9s.6 12 .5 18-.4 12-1.1 18c-1.3 11.9-3.8 23.7-7.8 34.9l-1.6 4.2-1.8 4.1c-.6 1.4-1.2 2.7-1.9 4-.7 1.3-1.3 2.7-2 4-2.8 5.3-6.1 10.2-9.6 14.9 3.2-5 6.1-10.1 8.5-15.5.7-1.3 1.1-2.7 1.7-4.1.5-1.4 1.1-2.7 1.6-4.1l1.4-4.2 1.2-4.2c3.2-11.3 4.8-22.9 5.2-34.5.2-5.8.1-11.6-.2-17.5-.3-5.8-.9-11.6-1.7-17.4-.8-5.8-1.8-11.5-3.1-17.1-.6-2.8-1.3-5.6-2.1-8.4l-1.2-4.2c-.4-1.4-.8-2.8-1.3-4-.9-2.6.5-5.5 3.1-6.4s5.5.5 6.4 3.1c.3.3.3.5.4.6zm-259.6-8.7c.5-.3.9-.5 1.3-.7l1.2-.6c.8-.4 1.6-.8 2.4-1.1 1.6-.7 3.2-1.4 4.8-2 3.2-1.2 6.6-2.2 9.9-3 6.8-1.5 13.9-2.1 20.9-1 7 1 13.8 3.9 19.4 8.2l1 .8c.3.3.7.6 1 .9l1.9 1.8 1.8 1.9c.6.6 1.2 1.3 1.7 2 1.1 1.4 2.1 2.7 3 4.2l1.4 2.1 1.2 2.2c.4.7.8 1.5 1.2 2.2l1.1 2.3 1 2.3 1 2.2c.3.7.6 1.5 1 2.2l1.1 2.2c.7 1.5 1.4 2.9 2.2 4.3 1.5 2.8 3.2 5.5 5 8.1 1.9 2.6 3.8 5.1 6 7.4 4.4 4.6 9.6 8.5 15.6 10.9 3 1.2 6.1 2 9.3 2.3s6.5.2 9.6-.7c-3.1 1.1-6.4 1.4-9.7 1.3s-6.6-.7-9.7-1.7c-6.3-2-12-5.8-16.9-10.3-2.4-2.3-4.7-4.7-6.8-7.3-2.1-2.6-4-5.3-5.8-8.1-.9-1.4-1.8-2.8-2.6-4.3l-1.2-2.2c-.4-.7-.8-1.5-1.2-2.2l-1.1-2.2-1.1-2.1-1.1-2.1c-.4-.7-.8-1.3-1.2-2l-1.3-2-1.4-1.9c-.9-1.3-1.9-2.4-2.9-3.6-.5-.6-1-1.1-1.6-1.6l-1.6-1.6-1.8-1.4c-.3-.2-.6-.5-.9-.7l-.9-.6c-2.4-1.7-5.2-3-7.9-4-2.8-1-5.7-1.6-8.7-1.8-5.9-.5-12 .3-17.8 2-2.9.9-5.8 1.9-8.6 3.2-1.4.6-2.8 1.3-4.1 2-.7.4-1.3.7-2 1.1l-1 .6c-.3.2-.7.4-.8.5-2.3 1.6-5.4 1-7-1.3s-1-5.4 1.3-7c.1 0 .2 0 .4-.1z"></path><path d="M183.1 299c.2.4.3.6.4.9.1.3.2.5.3.8.2.5.4 1.1.5 1.6.2.5.3 1.1.4 1.6.1.5.2 1.1.3 1.6.4 2.1.4 4.2.4 6.3-.1 4.2-1 8.2-2.3 12.1-.3 1-.7 1.9-1 2.8l-1.3 2.7c-.2.5-.4.9-.6 1.4l-.7 1.3-1.5 2.6c-1.1 1.7-2.2 3.3-3.3 5l-3.7 4.7 3.1-5c.9-1.8 1.8-3.5 2.6-5.2l1.1-2.7.6-1.3c.2-.5.3-.9.4-1.4l.9-2.7c.2-.9.4-1.9.6-2.8.8-3.7 1.1-7.5.8-11.2-.2-1.8-.5-3.6-1-5.4-.1-.4-.2-.9-.4-1.3s-.3-.8-.5-1.2c-.2-.4-.3-.8-.5-1.2-.1-.2-.2-.4-.3-.5s-.2-.4-.3-.4c-1.2-1.1-1.4-2.9-.3-4.2 1.1-1.2 2.9-1.4 4.2-.3.3.2.5.5.7.8l.4.6zm22.3 39.6c1.9 1.7 4.4 3 7 3.4 2.6.5 5.3-.1 7.5-1.7 2.2-1.5 3.9-3.7 5.3-6s2.5-4.8 3.4-7.4c-.8 2.6-1.8 5.2-3.1 7.6s-3 4.7-5.2 6.4c-1.1.8-2.4 1.5-3.8 1.9-1.4.4-2.8.4-4.2.3-1.4-.2-2.8-.6-4.1-1.2s-2.5-1.3-3.6-2.2c-.3-.2-.3-.6-.1-.9.1-.5.5-.5.9-.2-.1-.1-.1-.1 0 0zM213 200c-.6.9-1 1.5-1.5 2.2s-1.1 1.3-1.6 2c-1.1 1.3-2.2 2.5-3.4 3.6-1.1 1.2-2.4 2.2-3.7 3.3-1.3 1-2.6 2.1-3.9 3-5.4 3.7-11.3 6.7-17.5 8.7s-12.6 3-19 3.4l-9.3.2c-2.9.3-5.8.7-8.6 1.8-.3.1-.7.2-1 .4l-1 .5c-.7.3-1.4.6-2 .9-1.3.7-2.6 1.4-3.8 2.3-1.3.8-2.4 1.8-3.6 2.7-.6.5-1.1 1-1.7 1.5-.6.5-1.1 1-1.7 1.6l-1.6 1.6-1.5 1.7-1.5 1.8c-.5.6-1 1.2-1.4 1.8-1.8 2.5-3.6 5-5.2 7.6-3.2 5.3-5.9 10.9-8.3 16.6-2.4 5.8-4.4 11.6-6 17.7 1.2-6.1 2.9-12.2 4.9-18.1s4.5-11.7 7.5-17.3c1.5-2.8 3.1-5.5 4.9-8.1.4-.7.9-1.3 1.4-1.9.5-.7.9-1.3 1.4-1.9l1.5-1.9 1.6-1.8c.5-.6 1.1-1.2 1.7-1.7l1.7-1.7c1.2-1 2.4-2.1 3.8-3.1 1.3-1 2.7-1.8 4.1-2.7.7-.4 1.5-.8 2.2-1.1l1.1-.6c.4-.2.8-.3 1.1-.5.8-.3 1.5-.6 2.3-.9l2.4-.7c.8-.3 1.6-.4 2.4-.5.8-.1 1.6-.3 2.5-.4 3.4-.3 6.3-.4 9.4-.6 6-.7 12-1.8 17.6-3.9 5.6-2.1 10.9-4.9 15.7-8.4 1.2-.9 2.3-1.9 3.5-2.8 1.1-1 2.2-2 3.2-3s2-2.1 2.9-3.3c.4-.6.9-1.1 1.3-1.7.4-.6.9-1.2 1.1-1.7l.1-.1c.9-1.6 3-2.1 4.5-1.1s2 3 1 4.6c.1 0 .1 0 0 0zM340.1 73.1c-1.8.8-3.8 1.8-5.7 2.9-1.9 1.1-3.7 2.2-5.6 3.4-3.7 2.4-7.2 4.9-10.5 7.7-6.7 5.5-12.8 11.9-18.1 18.9-10.6 13.9-17.6 30.5-20.7 47.8-2.8 17.6-8.8 35-18.6 50.1-4.9 7.5-10.6 14.5-17.1 20.6-3.2 3.1-6.7 5.9-10.3 8.6-3.6 2.6-7.4 5.1-11.4 7 3.9-2.1 7.6-4.6 11.1-7.3s6.8-5.7 10-8.8c6.3-6.3 11.8-13.3 16.4-20.8 4.6-7.6 8.3-15.6 11.1-24 1.4-4.2 2.6-8.4 3.6-12.7.4-2.2.9-4.3 1.3-6.5l1.1-6.6c2.7-17.8 9.5-35.1 20.1-49.8 5.3-7.4 11.4-14.1 18.3-20.1 3.4-3 7-5.8 10.8-8.4 1.9-1.3 3.8-2.5 5.8-3.7s3.9-2.3 6.2-3.3c1.4-.7 3.1 0 3.7 1.4.7 1.4 0 3.1-1.5 3.6.1.1.1.1 0 0z"></path><path d="M272 182.2c-1.9 4.9-3.3 10-4.5 15.1-1.1 5.1-1.9 10.4-2.2 15.6-.1 2.6-.1 5.3.1 7.9.2 2.6.6 5.2 1.3 7.8.7 2.5 1.5 5.1 2.7 7.4 1.2 2.3 2.7 4.5 4.5 6.5-1.8-1.9-3.4-4.1-4.7-6.4-1.3-2.3-2.2-4.8-3-7.4-.7-2.6-1.2-5.2-1.5-7.9s-.4-5.3-.4-8c.1-5.3.7-10.7 1.7-15.9 1-5.3 2.3-10.4 4.1-15.5.2-.5.7-.8 1.2-.6.6.3.9.8.7 1.4 0-.1 0-.1 0 0zm43.4 54s-.3.1-.4.2l-.6.3-1.2.6-2.4 1.5c-1.6 1.1-3 2.4-4.4 3.8-1.4 1.4-2.6 3-3.7 4.6s-2 3.4-2.9 5.3c-3.3 7.4-4.4 15.9-4 24.4.2 4.3.8 8.6 1.5 12.8.8 4.3 1.8 8.5 3.1 12.7l1.9 6.5c.7 2.2 1.2 4.4 1.7 6.6.6 2.2 1 4.5 1.4 6.7.4 2.3.8 4.5 1.1 6.8 2.6 18.1.9 36.8-5 53.9-3 8.6-6.9 16.7-11.6 24.4-4.7 7.7-10.1 14.8-15.9 21.7 5.4-7.1 10.5-14.5 14.8-22.3s7.8-16 10.3-24.5c5-17 5.7-35.1 2.5-52.3-.4-2.2-.9-4.3-1.3-6.5-.6-2.1-1.1-4.3-1.7-6.4s-1.2-4.2-2-6.3l-2.2-6.3c-1.5-4.3-2.7-8.7-3.8-13.2-1-4.5-1.8-9.1-2.2-13.7-.8-9.3-.2-19.1 3.4-28.3.9-2.3 2-4.5 3.3-6.7 1.3-2.1 2.7-4.2 4.4-6.1 1.6-1.9 3.5-3.7 5.5-5.3 1-.8 2.1-1.5 3.2-2.2.6-.4 1.1-.7 1.7-1l.9-.5c.3-.2.6-.3 1.1-.5 2.6-1 5.5.3 6.4 2.9 1 2.6-.3 5.5-2.9 6.4z"></path></g></svg>